<svg width="24" height="24" viewBox="0 0 24 24" fill="none" xmlns="http://www.w3.org/2000/svg">
<path d="M12.5 8.5L5 16L8 19L15.5 11.5L19 15V5H9L12.5 8.5Z" fill="#3F3F3F"/>
<path fill-rule="evenodd" clip-rule="evenodd" d="M2 1C1.44772 1 1 1.44772 1 2V22C1 22.5523 1.44772 23 2 23H22C22.5523 23 23 22.5523 23 22V2C23 1.44772 22.5523 1 22 1H2ZM2.5 2C2.22386 2 2 2.22386 2 2.5V21.5C2 21.7761 2.22386 22 2.5 22H21.5C21.7761 22 22 21.7761 22 21.5V2.5C22 2.22386 21.7761 2 21.5 2H2.5Z" fill="#3F3F3F"/>
</svg>
