<?xml version="1.0" encoding="UTF-8"?>
<svg enable-background="new 0 0 24 24" version="1.1" viewBox="0 0 24 24" xml:space="preserve" xmlns="http://www.w3.org/2000/svg">
<g fill="#3F3F3F">
  <polygon points="10.74 4.99 18.34 3.91 20.72 6.94 21.52 5.03 18.5 1 12.47 1.93 3.02 9.01 3.87 10.14"/>
  <path d="m17.03 21.75c-2.32 0-3.2-1.24-3.8-2.09l-0.08-0.12 1.22-0.87 0.09 0.12c0.64 0.91 1.19 1.69 3.38 1.4 0.88-0.11 1.58-0.51 2.05-1.19 0.64-0.9 0.87-2.26 0.6-3.55-0.44-2.09-1.36-2.32-1.37-2.32l0.22-1.48c0.2 0.02 1.95 0.33 2.62 3.5 0.35 1.69 0.03 3.5-0.84 4.72-0.72 1.01-1.79 1.64-3.08 1.81-0.38 0.05-0.71 0.07-1.01 0.07z"/>
  <path d="m13.13 19.57s-2.08-3.05 0.01-6.52c-0.32-0.42-0.52-0.94-0.52-1.51 0-1.38 1.12-2.5 2.5-2.5s2.5 1.12 2.5 2.5-1.12 2.5-2.5 2.5c-0.3 0-0.59-0.06-0.85-0.16l0.01 0.02c-0.98 2.07-0.47 3.55 0.11 4.74l3.61-2.72 2.4-5.76-3.02-4.03-6.03 0.93-9.44 7.08 6.65 8.86"/>
</g>
</svg>
