<?xml version="1.0" encoding="utf-8"?>
<svg version="1.1" xmlns="http://www.w3.org/2000/svg">
  <style type="text/css">
    @media screen {
      #small {
        display: initial;
      }
      #medium, #large {
        display: none;
      }
    }
    @media screen and (min-width: 24px) {
      #small {
        display: none;
      }
      #medium {
        display: initial;
      }
    }
    @media screen and (min-width: 32px) {
      #medium {
        display: none;
      }
      #large {
        display: initial;
      }
    }
  </style>
  <svg id="small" version="1.1" xmlns="http://www.w3.org/2000/svg" xmlns:xlink="http://www.w3.org/1999/xlink" x="0px" y="0px"
  	 viewBox="0 0 16 16" enable-background="new 0 0 16 16">
  <path fill="#3D4242" d="M13.51,5.21l0.25-0.75l-2.84-2.83L6.67,3.05L1,8.71l5.67,5.66l2.34-2.33c0.63,0.82,1.51,1.34,2.48,1.34
  	c1.94,0,3.51-2.01,3.51-4.5C15,7.35,14.41,6.02,13.51,5.21z M11.49,12.37c-0.7,0-1.33-0.4-1.78-1.04l-0.7,0.7
  	c-0.63-0.81-1.03-1.92-1.03-3.16c0-0.89,0.21-1.71,0.56-2.4C8.31,6.14,8.17,5.74,8.17,5.31c0-1.1,0.9-2,2-2c1.1,0,2,0.9,2,2
  	s-0.9,2-2,2c-0.3,0-0.58-0.07-0.84-0.19C9.12,7.63,8.99,8.23,8.99,8.87c0,0.96,0.28,1.82,0.74,2.45l2.62-2.62l0.81-2.43
  	C13.67,6.91,14,7.83,14,8.87C14,10.8,12.88,12.37,11.49,12.37z"/>
  </svg>
  
  <svg id="medium" version="1.1" xmlns="http://www.w3.org/2000/svg" xmlns:xlink="http://www.w3.org/1999/xlink" x="0px" y="0px"
  	 viewBox="0 0 24 24" enable-background="new 0 0 24 24">
  <path fill="#3D4242" d="M20.66,7.62l0.39-1.18L16.59,2L9.91,4.22L1,13.11L9.91,22l3.68-3.67c1,1.29,2.37,2.1,3.9,2.1
  	c3.05,0,5.51-3.17,5.51-7.07C23,10.98,22.07,8.9,20.66,7.62z M17.49,18.86c-1.09,0-2.08-0.63-2.8-1.63l-1.1,1.1
  	c-1-1.27-1.62-3.02-1.62-4.97c0-1.4,0.33-2.68,0.88-3.77c-0.37-0.51-0.59-1.14-0.59-1.82c0-1.74,1.41-3.14,3.14-3.14
  	c1.74,0,3.14,1.41,3.14,3.14c0,1.74-1.41,3.14-3.14,3.14c-0.47,0-0.91-0.11-1.31-0.3c-0.34,0.81-0.54,1.74-0.54,2.75
  	c0,1.51,0.44,2.87,1.16,3.86l4.12-4.11l1.28-3.82c0.81,1,1.32,2.45,1.32,4.07C21.42,16.4,19.66,18.86,17.49,18.86z"/>
  </svg>
  
  <svg id="large" version="1.1" xmlns="http://www.w3.org/2000/svg" xmlns:xlink="http://www.w3.org/1999/xlink" x="0px" y="0px"
  	 viewBox="0 0 32 32" enable-background="new 0 0 32 32">
  <path fill="#3D4242" d="M27.81,10.03l0.54-1.61l-6.08-6.06l-9.11,3.03L1,17.51l12.15,12.12l5.01-5c1.36,1.76,3.23,2.86,5.32,2.86
  	c4.15,0,7.52-4.32,7.52-9.64C31,14.61,29.73,11.77,27.81,10.03z M23.48,25.36c-1.49,0-2.84-0.85-3.82-2.22l-1.5,1.5
  	c-1.36-1.73-2.21-4.12-2.21-6.77c0-1.91,0.45-3.66,1.2-5.15c-0.5-0.7-0.81-1.55-0.81-2.48c0-2.37,1.92-4.29,4.29-4.29
  	c2.37,0,4.29,1.92,4.29,4.29c0,2.37-1.92,4.29-4.29,4.29c-0.64,0-1.25-0.15-1.79-0.4c-0.46,1.1-0.74,2.38-0.74,3.75
  	c0,2.06,0.61,3.91,1.58,5.26l5.61-5.6l1.75-5.21c1.1,1.37,1.8,3.33,1.8,5.56C28.85,22,26.45,25.36,23.48,25.36z"/>
  </svg>
  
</svg>
