<?xml version="1.0" encoding="utf-8"?>
<svg version="1.1" xmlns="http://www.w3.org/2000/svg">
  <style type="text/css">
    @media screen {
      #small {
        display: initial;
      }
      #medium, #large {
        display: none;
      }
    }
    @media screen and (min-width: 24px) {
      #small {
        display: none;
      }
      #medium {
        display: initial;
      }
    }
    @media screen and (min-width: 32px) {
      #medium {
        display: none;
      }
      #large {
        display: initial;
      }
    }
  </style>
  <svg id="small" version="1.1" xmlns="http://www.w3.org/2000/svg" xmlns:xlink="http://www.w3.org/1999/xlink" x="0px" y="0px"
  	 viewBox="0 0 16 16" enable-background="new 0 0 16 16">
  <path fill="#3D4242" d="M8,1C5.79,1,4,2.79,4,5v6c0,2.21,1.79,4,4,4s4-1.79,4-4V5C12,2.79,10.21,1,8,1z M11,8H9H7H5V5
  	c0-1.3,0.84-2.4,2-2.82V6h2V2.18C10.16,2.6,11,3.7,11,5V8z"/>
  </svg>
  
  <svg id="medium" version="1.1" xmlns="http://www.w3.org/2000/svg" xmlns:xlink="http://www.w3.org/1999/xlink" x="0px" y="0px"
  	 viewBox="0 0 24 24" enable-background="new 0 0 24 24">
  <path fill="#3D4242" d="M12,1C8.69,1,6,3.69,6,7v10c0,3.31,2.69,6,6,6c3.31,0,6-2.69,6-6V7C18,3.69,15.31,1,12,1z M16,12H8V7
  	c0-1.86,1.28-3.41,3-3.86V9h2V3.14c1.72,0.45,3,2,3,3.86V12z"/>
  </svg>
  
  <svg id="large" version="1.1" xmlns="http://www.w3.org/2000/svg" xmlns:xlink="http://www.w3.org/1999/xlink" x="0px" y="0px"
  	 viewBox="0 0 32 32" enable-background="new 0 0 32 32">
  <path fill="#3D4242" d="M16,1c-4.97,0-9,4.03-9,9v12c0,4.97,4.03,9,9,9c4.97,0,9-4.03,9-9V10C25,5.03,20.97,1,16,1z M23,17H9v-7
  	c0-3.17,2.11-5.85,5-6.71V13h4V3.29c2.89,0.86,5,3.54,5,6.71V17z"/>
  </svg>
  
</svg>
