<?xml version="1.0" encoding="utf-8"?>
<svg version="1.1" xmlns="http://www.w3.org/2000/svg">
  <style type="text/css">
    @media screen {
      #small {
        display: initial;
      }
      #medium, #large {
        display: none;
      }
    }
    @media screen and (min-width: 24px) {
      #small {
        display: none;
      }
      #medium {
        display: initial;
      }
    }
    @media screen and (min-width: 32px) {
      #medium {
        display: none;
      }
      #large {
        display: initial;
      }
    }
  </style>
  <svg id="small" version="1.1" xmlns="http://www.w3.org/2000/svg" xmlns:xlink="http://www.w3.org/1999/xlink" x="0px" y="0px"
  	 viewBox="0 0 16 16" enable-background="new 0 0 16 16">
  <g>
  	<rect x="1" y="3" fill="#3D4242" width="14" height="1"/>
  	<rect x="1" y="5" fill="#3D4242" width="14" height="1"/>
  	<rect x="1" y="7" fill="#3D4242" width="14" height="1"/>
  	<path fill="#3D4242" d="M16,12h-0.59l0.41-0.41l-1.41-1.41L14,10.59V10h-2v0.59l-0.41-0.41l-1.41,1.41L10.59,12H10v2h0.59
  		l-0.41,0.41l1.41,1.41L12,15.41V16h2v-0.59l0.41,0.41l1.41-1.41L15.41,14H16V12z M13,14.5c-0.83,0-1.5-0.67-1.5-1.5
  		s0.67-1.5,1.5-1.5c0.83,0,1.5,0.67,1.5,1.5S13.83,14.5,13,14.5z"/>
  	<polygon fill="#3D4242" points="1,12 9,12 9,11.83 8.76,11.59 9,11.34 9,11 1,11 	"/>
  	<polygon fill="#3D4242" points="10.88,9.46 11,9.34 11,9 1,9 1,10 10.34,10 	"/>
  </g>
  </svg>
  
  <svg id="medium" version="1.1" xmlns="http://www.w3.org/2000/svg" xmlns:xlink="http://www.w3.org/1999/xlink" x="0px" y="0px"
  	 viewBox="0 0 24 24" enable-background="new 0 0 24 24">
  <g>
  	<rect x="1" y="4" fill="#3D4242" width="22" height="2"/>
  	<rect x="1" y="8" fill="#3D4242" width="22" height="2"/>
  	<path fill="#3D4242" d="M24,20v-2h-1.66c-0.07-0.23-0.16-0.45-0.27-0.65l1.17-1.17l-1.41-1.41l-1.17,1.17
  		c-0.21-0.11-0.42-0.2-0.65-0.27V14h-2v1.66c-0.23,0.07-0.45,0.16-0.65,0.27l-1.17-1.17l-1.41,1.41l1.17,1.17
  		c-0.11,0.21-0.2,0.42-0.27,0.65H14v2h1.66c0.07,0.23,0.16,0.45,0.27,0.65l-1.17,1.17l1.41,1.41l1.17-1.17
  		c0.21,0.11,0.42,0.2,0.65,0.27V24h2v-1.66c0.23-0.07,0.45-0.16,0.65-0.27l1.17,1.17l1.41-1.41l-1.17-1.17
  		c0.11-0.21,0.2-0.42,0.27-0.65H24z M19,20.5c-0.83,0-1.5-0.67-1.5-1.5s0.67-1.5,1.5-1.5c0.83,0,1.5,0.67,1.5,1.5
  		S19.83,20.5,19,20.5z"/>
  	<polygon fill="#3D4242" points="12.81,16 1,16 1,18 12.5,18 12.5,16.5 12.96,16.5 12.64,16.17 	"/>
  	<polygon fill="#3D4242" points="15.11,13.7 16.17,12.64 16.5,12.96 16.5,12.5 18,12.5 20,12.5 21.5,12.5 21.5,12.96 21.83,12.64 
  		22.89,13.7 23,13.81 23,12 1,12 1,14 14.81,14 	"/>
  </g>
  </svg>
  
  <svg id="large" version="1.1" xmlns="http://www.w3.org/2000/svg" xmlns:xlink="http://www.w3.org/1999/xlink" x="0px" y="0px"
  	 viewBox="0 0 32 32" enable-background="new 0 0 32 32">
  <g>
  	<rect x="1" y="5" fill="#3D4242" width="30" height="2"/>
  	<rect x="1" y="10" fill="#3D4242" width="30" height="2"/>
  	<path fill="#3D4242" d="M32,26v-2h-2.1c-0.13-0.64-0.38-1.23-0.73-1.75l1.49-1.49l-1.41-1.41l-1.49,1.49
  		c-0.52-0.35-1.12-0.6-1.75-0.73V18h-2v2.1c-0.64,0.13-1.23,0.38-1.75,0.73l-1.49-1.49l-1.42,1.41l1.49,1.49
  		c-0.35,0.52-0.6,1.12-0.73,1.75H18v2h2.1c0.13,0.64,0.38,1.23,0.73,1.75l-1.49,1.49l1.42,1.41l1.49-1.49
  		c0.52,0.35,1.12,0.6,1.75,0.73V32h2v-2.1c0.64-0.13,1.23-0.38,1.75-0.73l1.49,1.49l1.41-1.41l-1.49-1.49
  		c0.35-0.52,0.6-1.12,0.73-1.75H32z M25,27c-1.1,0-2-0.9-2-2s0.9-2,2-2c1.1,0,2,0.9,2,2S26.1,27,25,27z"/>
  	<polygon fill="#3D4242" points="1,27 16.5,27 16.5,26 16.5,25 1,25 	"/>
  	<polygon fill="#3D4242" points="18.28,21.82 17.22,20.76 17.98,20 1,20 1,22 18.46,22 	"/>
  	<polygon fill="#3D4242" points="22.5,16.5 24,16.5 26,16.5 27.5,16.5 27.5,17 31,17 31,15 1,15 1,17 22.5,17 	"/>
  </g>
  </svg>
  
</svg>
