<?xml version="1.0" encoding="utf-8"?>
<svg version="1.1" xmlns="http://www.w3.org/2000/svg">
  <style type="text/css">
    @media screen {
      #small {
        display: initial;
      }
      #medium, #large {
        display: none;
      }
    }
    @media screen and (min-width: 24px) {
      #small {
        display: none;
      }
      #medium {
        display: initial;
      }
    }
    @media screen and (min-width: 32px) {
      #medium {
        display: none;
      }
      #large {
        display: initial;
      }
    }
  </style>
  <svg id="small" version="1.1" xmlns="http://www.w3.org/2000/svg" xmlns:xlink="http://www.w3.org/1999/xlink" x="0px" y="0px"
  	 viewBox="0 0 16 16" enable-background="new 0 0 16 16">
  <path fill="#3D4242" d="M14.11,7.04c0.89-0.89,1.11-2.2,0.66-3.3L12.3,6.22l-1.65-1.65l2.47-2.47c-1.1-0.45-2.41-0.23-3.3,0.66
  	C8.87,3.71,8.68,5.15,9.27,6.29L8.01,7.56L5.95,5.5l0.99-0.99l1.98-1.98c0,0-0.33-0.33-0.66-0.66C6.28,3.85,4.63,2.2,4.63,2.2
  	L1,5.83l2.31,2.31l1.32-1.32l2.06,2.06l-3.81,3.81L4.2,14l3.81-3.8l3.81,3.8l1.32-1.32L9.33,8.88l1.27-1.27
  	C11.74,8.18,13.16,8,14.11,7.04z"/>
  </svg>
  
  <svg id="medium" version="1.1" xmlns="http://www.w3.org/2000/svg" xmlns:xlink="http://www.w3.org/1999/xlink" x="0px" y="0px"
  	 viewBox="0 0 24 24" enable-background="new 0 0 24 24">
  <path fill="#3D4242" d="M21.6,11.07c1.4-1.4,1.75-3.46,1.04-5.18l-3.89,3.89l-2.59-2.59l3.89-3.89c-1.73-0.71-3.78-0.37-5.18,1.04
  	c-1.5,1.5-1.79,3.76-0.87,5.56l-1.99,1.99L8.78,8.64l1.56-1.56l3.11-3.11c0,0-0.52-0.52-1.04-1.04C9.3,6.04,6.7,3.45,6.7,3.45
  	L1,9.16l3.63,3.63l2.07-2.07l3.24,3.23l-5.98,5.98L6.03,22l5.98-5.98L17.99,22l2.07-2.07l-5.98-5.98l1.99-2
  	C17.87,12.86,20.11,12.57,21.6,11.07z"/>
  </svg>
  
  <svg id="large" version="1.1" xmlns="http://www.w3.org/2000/svg" xmlns:xlink="http://www.w3.org/1999/xlink" x="0px" y="0px"
  	 viewBox="0 0 32 32" enable-background="new 0 0 32 32">
  <path fill="#3D4242" d="M29.1,14.1c1.91-1.91,2.38-4.72,1.41-7.07l-5.3,5.3l-3.54-3.54l5.3-5.3c-2.35-0.97-5.16-0.5-7.07,1.41
  	c-2.05,2.05-2.44,5.13-1.18,7.58l-2.71,2.71l-4.41-4.41l2.12-2.12l4.24-4.24c0,0-0.71-0.71-1.41-1.41
  	c-4.24,4.24-7.78,0.71-7.78,0.71L1,11.49l4.95,4.95l2.83-2.83l4.41,4.41l-8.16,8.15L7.86,29l8.16-8.15L24.17,29L27,26.17l-8.15-8.15
  	l2.72-2.72C24,16.53,27.06,16.13,29.1,14.1z"/>
  </svg>
  
</svg>
