<?xml version="1.0" encoding="utf-8"?>
<svg version="1.1" xmlns="http://www.w3.org/2000/svg">
  <style type="text/css">
    @media screen {
      #small {
        display: initial;
      }
      #medium, #large {
        display: none;
      }
    }
    @media screen and (min-width: 24px) {
      #small {
        display: none;
      }
      #medium {
        display: initial;
      }
    }
    @media screen and (min-width: 32px) {
      #medium {
        display: none;
      }
      #large {
        display: initial;
      }
    }
  </style>
  <svg id="small" version="1.1" xmlns="http://www.w3.org/2000/svg" xmlns:xlink="http://www.w3.org/1999/xlink" x="0px" y="0px"
  	 viewBox="0 0 16 16" style="enable-background:new 0 0 16 16;">
  <style type="text/css">
  	.st0{fill:#3D4242;}
  </style>
  <path class="st0" d="M8,1C4.13,1,1,4.13,1,8s3.13,7,7,7c1.96,0-2.27-2.7-1-4c1.24-1.26,8,1.12,8-3C15,4.13,11.87,1,8,1z M5,8H3V6h2
  	V8z M7,5H5V3h2V5z M9,5V3h2v2H9z M13,8h-2V6h2V8z"/>
  </svg>
  
  <svg id="medium" version="1.1" xmlns="http://www.w3.org/2000/svg" xmlns:xlink="http://www.w3.org/1999/xlink" x="0px" y="0px"
  	 viewBox="0 0 24 24" style="enable-background:new 0 0 24 24;">
  <style type="text/css">
  	.st0{fill:#3D4242;}
  </style>
  <path class="st0" d="M12,1C5.92,1,1,5.92,1,12s4.92,11,11,11c3.08,0-3.57-4.25-1.57-6.29C12.37,14.73,23,18.47,23,12
  	C23,5.92,18.08,1,12,1z M4.5,11C3.67,11,3,10.33,3,9.5S3.67,8,4.5,8C5.33,8,6,8.67,6,9.5S5.33,11,4.5,11z M7.5,7
  	C6.67,7,6,6.33,6,5.5S6.67,4,7.5,4C8.33,4,9,4.67,9,5.5S8.33,7,7.5,7z M12,5c-0.83,0-1.5-0.67-1.5-1.5S11.17,2,12,2
  	c0.83,0,1.5,0.67,1.5,1.5S12.83,5,12,5z M16.5,7C15.67,7,15,6.33,15,5.5S15.67,4,16.5,4C17.33,4,18,4.67,18,5.5S17.33,7,16.5,7z
  	 M19.5,11c-0.83,0-1.5-0.67-1.5-1.5S18.67,8,19.5,8C20.33,8,21,8.67,21,9.5S20.33,11,19.5,11z"/>
  </svg>
  
  <svg id="large" version="1.1" xmlns="http://www.w3.org/2000/svg" xmlns:xlink="http://www.w3.org/1999/xlink" x="0px" y="0px"
  	 viewBox="0 0 32 32" style="enable-background:new 0 0 32 32;">
  <style type="text/css">
  	.st0{fill:#3D4242;}
  </style>
  <path class="st0" d="M16,1C7.72,1,1,7.72,1,16s6.72,15,15,15c4.2,0-4.87-5.79-2.14-8.57C16.51,19.72,31,24.83,31,16
  	C31,7.72,24.28,1,16,1z M5.5,16C4.12,16,3,14.88,3,13.5S4.12,11,5.5,11C6.88,11,8,12.12,8,13.5S6.88,16,5.5,16z M9.5,10
  	C8.12,10,7,8.88,7,7.5S8.12,5,9.5,5C10.88,5,12,6.12,12,7.5S10.88,10,9.5,10z M16,8c-1.38,0-2.5-1.12-2.5-2.5S14.62,3,16,3
  	c1.38,0,2.5,1.12,2.5,2.5S17.38,8,16,8z M20,7.5C20,6.12,21.12,5,22.5,5C23.88,5,25,6.12,25,7.5S23.88,10,22.5,10
  	C21.12,10,20,8.88,20,7.5z M26.5,16c-1.38,0-2.5-1.12-2.5-2.5s1.12-2.5,2.5-2.5c1.38,0,2.5,1.12,2.5,2.5S27.88,16,26.5,16z"/>
  </svg>
  
</svg>
