<?xml version="1.0" encoding="utf-8"?>
<svg version="1.1" xmlns="http://www.w3.org/2000/svg">
  <style type="text/css">
    @media screen {
      #small {
        display: initial;
      }
      #medium, #large {
        display: none;
      }
    }
    @media screen and (min-width: 24px) {
      #small {
        display: none;
      }
      #medium {
        display: initial;
      }
    }
    @media screen and (min-width: 32px) {
      #medium {
        display: none;
      }
      #large {
        display: initial;
      }
    }
  </style>
  <svg id="small" version="1.1" xmlns="http://www.w3.org/2000/svg" xmlns:xlink="http://www.w3.org/1999/xlink" x="0px" y="0px"
  	 viewBox="0 0 16 16" enable-background="new 0 0 16 16">
  <g>
  	<path fill="#3D4242" d="M10,7.37V2c0-0.55-0.9-1-2-1C6.9,1,6,1.45,6,2v2.38L7.9,5.8L10,7.37z"/>
  	<path fill="#3D4242" d="M7.9,14.2l-0.89,0.66C7.31,14.95,7.64,15,8,15c1.1,0,2-0.45,2-1v-1.38L7.9,14.2z"/>
  </g>
  <g>
  	<path fill="#3D4242" d="M7,8.95C4.72,8.72,3,7.71,3,6.5c0-0.82,0.79-1.53,2-1.99V3.39C2.64,4.03,1,5.41,1,7
  		c0,2.01,2.61,3.68,6,3.95V13l4-3L7,7V8.95z"/>
  	<path fill="#3D4242" d="M11,3.39v1.12c1.21,0.46,2,1.17,2,1.99c0,0.74-0.66,1.4-1.69,1.86L11.9,8.8l1.22,0.92C14.28,9,15,8.05,15,7
  		C15,5.41,13.36,4.03,11,3.39z"/>
  </g>
  </svg>
  
  <svg id="medium" version="1.1" xmlns="http://www.w3.org/2000/svg" xmlns:xlink="http://www.w3.org/1999/xlink" x="0px" y="0px"
  	 viewBox="0 0 24 24" enable-background="new 0 0 24 24">
  <g>
  	<path fill="#3D4242" d="M10,13.88c-4.01-0.46-7-2.24-7-4.38c0-1.77,2.04-3.29,5-4.03V4.45C3.91,5.4,1,7.75,1,10.5
  		c0,3.19,3.88,5.83,9,6.39V20l6-4.5L10,11V13.88z"/>
  	<path fill="#3D4242" d="M15,12.87V3c0-1.1-1.34-2-3-2c-1.66,0-3,0.9-3,2v5.38l1.9,1.43L15,12.87z"/>
  	<path fill="#3D4242" d="M9.59,22.18C10.14,22.68,11.01,23,12,23c1.66,0,3-0.9,3-2v-2.88l-4.1,3.08L9.59,22.18z"/>
  	<path fill="#3D4242" d="M16,4.45v1.02c2.96,0.74,5,2.26,5,4.03c0,1.79-2.08,3.32-5.1,4.05l1,0.75l1.6,1.2l-0.68,0.51
  		c3.1-1.15,5.18-3.18,5.18-5.51C23,7.75,20.09,5.4,16,4.45z"/>
  </g>
  </svg>
  
  <svg id="large" version="1.1" xmlns="http://www.w3.org/2000/svg" xmlns:xlink="http://www.w3.org/1999/xlink" x="0px" y="0px"
  	 viewBox="0 0 32 32" enable-background="new 0 0 32 32">
  <g>
  	<path fill="#3D4242" d="M13,27l8-6.5L13,14v4.8c-5.17-0.67-9-3.01-9-5.8c0-2.42,2.87-4.5,7-5.45V5.52C5.18,6.76,1,10.08,1,14
  		c0,4.35,5.15,7.99,12,8.82V27z"/>
  	<path fill="#3D4242" d="M20,17.75V3.5C20,2.12,18.21,1,16,1c-2.21,0-4,1.12-4,2.5v7.75l1.95,1.58L20,17.75z"/>
  	<path fill="#3D4242" d="M12.32,29.48C12.93,30.37,14.35,31,16,31c2.21,0,4-1.12,4-2.5v-5.25l-6.05,4.92L12.32,29.48z"/>
  	<path fill="#3D4242" d="M21,5.52v2.03c4.13,0.95,7,3.03,7,5.45c0,2.44-2.92,4.54-7.11,5.48l1.06,0.86l1.43,1.16l-1.43,1.16
  		l-1.02,0.83C26.79,21.27,31,17.93,31,14C31,10.08,26.82,6.76,21,5.52z"/>
  </g>
  </svg>
  
</svg>
