<?xml version="1.0" encoding="utf-8"?>
<svg version="1.1" xmlns="http://www.w3.org/2000/svg">
  <style type="text/css">
    @media screen {
      #small {
        display: initial;
      }
      #medium, #large {
        display: none;
      }
    }
    @media screen and (min-width: 24px) {
      #small {
        display: none;
      }
      #medium {
        display: initial;
      }
    }
    @media screen and (min-width: 32px) {
      #medium {
        display: none;
      }
      #large {
        display: initial;
      }
    }
  </style>
  <svg id="small" version="1.1" xmlns="http://www.w3.org/2000/svg" xmlns:xlink="http://www.w3.org/1999/xlink" x="0px" y="0px"
  	 viewBox="0 0 16 16" enable-background="new 0 0 16 16">
  <path fill="#3D4242" d="M6,3v2v6.52C5.47,11.2,4.77,11,4,11c-1.66,0-3,0.9-3,2s1.34,2,3,2c1.66,0,3-0.9,3-2V4.78l7-1.55v6.3
  	C13.47,9.2,12.77,9,12,9c-1.66,0-3,0.9-3,2s1.34,2,3,2c1.66,0,3-0.9,3-2V3V2V1L6,3z"/>
  </svg>
  
  <svg id="medium" version="1.1" xmlns="http://www.w3.org/2000/svg" xmlns:xlink="http://www.w3.org/1999/xlink" x="0px" y="0px"
  	 viewBox="0 0 24 24" enable-background="new 0 0 24 24">
  <path fill="#3D4242" d="M8,4v3v10.51C7.29,17.19,6.43,17,5.5,17C3.01,17,1,18.34,1,20s2.01,3,4.5,3c2.49,0,4.5-1.34,4.5-3V6.6
  	l11-2.2v10.11C20.29,14.19,19.43,14,18.5,14c-2.49,0-4.5,1.34-4.5,3s2.01,3,4.5,3c2.49,0,4.5-1.34,4.5-3V4V2V1L8,4z"/>
  </svg>
  
  <svg id="large" version="1.1" xmlns="http://www.w3.org/2000/svg" xmlns:xlink="http://www.w3.org/1999/xlink" x="0px" y="0px"
  	 viewBox="0 0 32 32" enable-background="new 0 0 32 32">
  <path fill="#3D4242" d="M11,6v4v14.02C9.94,23.39,8.54,23,7,23c-3.31,0-6,1.79-6,4s2.69,4,6,4c3.31,0,6-1.79,6-4V9.5l16-4v13.52
  	C27.94,18.39,26.54,18,25,18c-3.31,0-6,1.79-6,4s2.69,4,6,4c3.31,0,6-1.79,6-4V5V2V1L11,6z"/>
  </svg>
  
</svg>
