<?xml version="1.0" encoding="utf-8"?>
<svg version="1.1" xmlns="http://www.w3.org/2000/svg">
  <style type="text/css">
    @media screen {
      #small {
        display: initial;
      }
      #medium, #large {
        display: none;
      }
    }
    @media screen and (min-width: 24px) {
      #small {
        display: none;
      }
      #medium {
        display: initial;
      }
    }
    @media screen and (min-width: 32px) {
      #medium {
        display: none;
      }
      #large {
        display: initial;
      }
    }
  </style>
  <svg id="small" version="1.1" xmlns="http://www.w3.org/2000/svg" xmlns:xlink="http://www.w3.org/1999/xlink" x="0px" y="0px"
  	 viewBox="0 0 16 16" enable-background="new 0 0 16 16">
  <polygon fill="#3D4242" points="13,11 13,8 9,8 9,5 12,5 12,1 5,1 5,5 8,5 8,8 4,8 4,11 2,11 2,15 8,15 8,11 5,11 5,9 12,9 12,11 
  	9,11 9,15 15,15 15,11 "/>
  </svg>
  
  <svg id="medium" version="1.1" xmlns="http://www.w3.org/2000/svg" xmlns:xlink="http://www.w3.org/1999/xlink" x="0px" y="0px"
  	 viewBox="0 0 24 24" enable-background="new 0 0 24 24">
  <polygon fill="#3D4242" points="19,17 19,11 13,11 13,7 17,7 17,1 7,1 7,7 11,7 11,11 5,11 5,17 1,17 1,23 11,23 11,17 7,17 7,13 
  	17,13 17,17 13,17 13,23 23,23 23,17 "/>
  </svg>
  
  <svg id="large" version="1.1" xmlns="http://www.w3.org/2000/svg" xmlns:xlink="http://www.w3.org/1999/xlink" x="0px" y="0px"
  	 viewBox="0 0 32 32" enable-background="new 0 0 32 32">
  <polygon fill="#3D4242" points="25,22 25,15 17,15 17,10 23,10 23,1 9,1 9,10 15,10 15,15 7,15 7,22 1,22 1,31 15,31 15,22 9,22 
  	9,17 23,17 23,22 17,22 17,31 31,31 31,22 "/>
  </svg>
  
</svg>
