<?xml version="1.0" encoding="utf-8"?>
<svg version="1.1" xmlns="http://www.w3.org/2000/svg">
  <style type="text/css">
    @media screen {
      #small {
        display: initial;
      }
      #medium, #large {
        display: none;
      }
    }
    @media screen and (min-width: 24px) {
      #small {
        display: none;
      }
      #medium {
        display: initial;
      }
    }
    @media screen and (min-width: 32px) {
      #medium {
        display: none;
      }
      #large {
        display: initial;
      }
    }
  </style>
  <svg id="small" version="1.1" xmlns="http://www.w3.org/2000/svg" xmlns:xlink="http://www.w3.org/1999/xlink" x="0px" y="0px"
  	 viewBox="0 0 16 16" enable-background="new 0 0 16 16">
  <path fill="#3D4242" d="M1,2v12h14V2H1z M7,11H4.5C3.12,11,2,9.88,2,8.5S3.12,6,4.5,6H7v1H4.5C3.67,7,3,7.67,3,8.5S3.67,10,4.5,10H7
  	V11z M11,8v1H5V8H11z M11.5,11H9v-1h2.5c0.83,0,1.5-0.67,1.5-1.5S12.33,7,11.5,7H9V6h2.5C12.88,6,14,7.12,14,8.5S12.88,11,11.5,11z
  	 M14,6l-3-3h3V6z"/>
  </svg>
  
  <svg id="medium" version="1.1" xmlns="http://www.w3.org/2000/svg" xmlns:xlink="http://www.w3.org/1999/xlink" x="0px" y="0px"
  	 viewBox="0 0 24 24" enable-background="new 0 0 24 24">
  <path fill="#3D4242" d="M1,3v18h22V3H1z M10,16H7c-2.21,0-4-1.79-4-4s1.79-4,4-4h3v2H7c-1.1,0-2,0.9-2,2s0.9,2,2,2h3V16z M16,11v2H8
  	v-2H16z M17,16h-3v-2h3c1.1,0,2-0.9,2-2s-0.9-2-2-2h-3V8h3c2.21,0,4,1.79,4,4S19.21,16,17,16z M22,8l-4-4h4V8z"/>
  </svg>
  
  <svg id="large" version="1.1" xmlns="http://www.w3.org/2000/svg" xmlns:xlink="http://www.w3.org/1999/xlink" x="0px" y="0px"
  	 viewBox="0 0 32 32" enable-background="new 0 0 32 32">
  <path fill="#3D4242" d="M1,3v26h30V3H1z M14,22H8.5C5.46,22,3,19.54,3,16.5S5.46,11,8.5,11H14v2H8.5C6.57,13,5,14.57,5,16.5
  	S6.57,20,8.5,20H14V22z M22,15v3H10v-3H22z M23.5,22H18v-2h5.5c1.93,0,3.5-1.57,3.5-3.5S25.43,13,23.5,13H18v-2h5.5
  	c3.04,0,5.5,2.46,5.5,5.5S26.54,22,23.5,22z M30,10l-6-6h6V10z"/>
  </svg>
  
</svg>
