<?xml version="1.0" encoding="utf-8"?>
<svg version="1.1" xmlns="http://www.w3.org/2000/svg">
  <style type="text/css">
    @media screen {
      #small {
        display: initial;
      }
      #medium, #large {
        display: none;
      }
    }
    @media screen and (min-width: 24px) {
      #small {
        display: none;
      }
      #medium {
        display: initial;
      }
    }
    @media screen and (min-width: 32px) {
      #medium {
        display: none;
      }
      #large {
        display: initial;
      }
    }
  </style>
  <svg id="small" version="1.1" xmlns="http://www.w3.org/2000/svg" xmlns:xlink="http://www.w3.org/1999/xlink" x="0px" y="0px"
  	 viewBox="0 0 16 16" enable-background="new 0 0 16 16">
  <path fill="#3D4242" d="M14,6c-1,0-4,0-4,0S9,6,9,7H7c0,0,0-1-1-1S2,6,2,6S1,6,1,7s0,1,0,1s0,2,3,2s3-2,3-2h2c0,0,0,2,3,2s3-2,3-2V7
  	C15,7,15,6,14,6z M4,8H2V7h2V8z M12,8h-2V7h2V8z"/>
  </svg>
  
  <svg id="medium" version="1.1" xmlns="http://www.w3.org/2000/svg" xmlns:xlink="http://www.w3.org/1999/xlink" x="0px" y="0px"
  	 viewBox="0 0 24 24" enable-background="new 0 0 24 24">
  <path fill="#3D4242" d="M22,9c-1,0-7,0-7,0s-1,0-1,1c0,0.08,0,0.15,0,0.23C13.13,10,12,10,12,10s-1.13,0-2,0.23c0-0.1,0-0.17,0-0.23
  	c0,0,0-1-1-1S2,9,2,9s-1,0-1,1s0,2,0,2s0,3,3,3s3,0,3,0s2.83-0.01,2.99-2.77C10.43,12.1,11.07,12,12,12c0.93,0,1.57,0.1,2.02,0.23
  	C14.09,12.93,14.5,15,17,15c3,0,3,0,3,0s3,0,3-3c0-1.21,0-1.76,0-2C23,10,23,9,22,9z M5,12H3c-0.55,0-1-0.45-1-1s0.45-1,1-1h2
  	c0.55,0,1,0.45,1,1S5.55,12,5,12z M18,12h-2c-0.55,0-1-0.45-1-1s0.45-1,1-1h2c0.55,0,1,0.45,1,1S18.55,12,18,12z"/>
  </svg>
  
  <svg id="large" version="1.1" xmlns="http://www.w3.org/2000/svg" xmlns:xlink="http://www.w3.org/1999/xlink" x="0px" y="0px"
  	 viewBox="0 0 32 32" enable-background="new 0 0 32 32">
  <path fill="#3D4242" d="M29,12c-2,0-8,0-8,0s-2,0-2,2c0,0.12,0,0.2,0,0.31C17.82,14,16,14,16,14s-1.82,0-3,0.31
  	c0-0.12,0-0.22,0-0.31c0,0,0-2-2-2s-8,0-8,0s-2,0-2,2s0,2,0,2s0,4,4,4s4,0,4,0s3.77-0.01,3.98-3.68C13.57,16.14,14.5,16,16,16
  	c1.5,0,2.44,0.14,3.02,0.32C19.12,17.25,19.68,20,23,20c4,0,4,0,4,0s4,0,4-4c0-1,0-1.63,0-2C31,14,31,12,29,12z M6.5,16h-3
  	C2.67,16,2,15.33,2,14.5S2.67,13,3.5,13h3C7.33,13,8,13.67,8,14.5S7.33,16,6.5,16z M24.5,16h-3c-0.83,0-1.5-0.67-1.5-1.5
  	s0.67-1.5,1.5-1.5h3c0.83,0,1.5,0.67,1.5,1.5S25.33,16,24.5,16z"/>
  </svg>
  
</svg>
