<?xml version="1.0" encoding="utf-8"?>
<svg version="1.1" xmlns="http://www.w3.org/2000/svg">
  <style type="text/css">
    @media screen {
      #small {
        display: initial;
      }
      #medium, #large {
        display: none;
      }
    }
    @media screen and (min-width: 24px) {
      #small {
        display: none;
      }
      #medium {
        display: initial;
      }
    }
    @media screen and (min-width: 32px) {
      #medium {
        display: none;
      }
      #large {
        display: initial;
      }
    }
  </style>
  <svg id="small" version="1.1" xmlns="http://www.w3.org/2000/svg" xmlns:xlink="http://www.w3.org/1999/xlink" x="0px" y="0px"
  	 viewBox="0 0 16 16" enable-background="new 0 0 16 16">
  <g>
  	<rect x="3" y="1" fill="#3D4242" width="10" height="1"/>
  	<path fill="#3D4242" d="M3,3v12h10V3H3z M6,7H5v2h1v1H5V9H4V7h1V6h1V7z M9,7H8v1h1v1v1H7V9h1V8H7V7V6h2V7z M12,7h-1v1h1v1v1h-2V9h1
  		V8h-1V7V6h2V7z"/>
  </g>
  </svg>
  
  <svg id="medium" version="1.1" xmlns="http://www.w3.org/2000/svg" xmlns:xlink="http://www.w3.org/1999/xlink" x="0px" y="0px"
  	 viewBox="0 0 24 24" enable-background="new 0 0 24 24">
  <g>
  	<rect x="4" y="1" fill="#3D4242" width="16" height="2"/>
  	<path fill="#3D4242" d="M4,4v19h16V4H4z M9,9H7v1H6v2h1v1h2v1H7H6v-1H5v-1v-2V9h1V8h1h2V9z M14,9h-3v1h1h1v1h1v1v1h-1v1h-2v-1h-1
  		v-1h1v1h2v-1h-1v-1h-1v-1h-1V9h1V8h3V9z M19,9h-1h-2v1h2v1h1v2h-1v1h-2v-1h-1v-1h1v1h2v-1h-1v-1h-1v-1h-1V9h1V8h2h1V9z"/>
  	<rect x="6" y="9" opacity="0.5" fill="#3D4242" width="1" height="1"/>
  	<rect x="6" y="12" opacity="0.5" fill="#3D4242" width="1" height="1"/>
  	<rect x="12" y="11" opacity="0.5" fill="#3D4242" width="1" height="1"/>
  	<rect x="17" y="11" opacity="0.5" fill="#3D4242" width="1" height="1"/>
  </g>
  </svg>
  
  <svg id="large" version="1.1" xmlns="http://www.w3.org/2000/svg" xmlns:xlink="http://www.w3.org/1999/xlink" x="0px" y="0px"
  	 viewBox="0 0 32 32" enable-background="new 0 0 32 32">
  <g>
  	<rect x="5" y="1" fill="#3D4242" width="22" height="2"/>
  	<path fill="#3D4242" d="M5,5v26h22V5H5z M12.9,12.59c-0.52-0.31-1.1-0.46-1.73-0.46c-0.84,0-1.52,0.27-2.04,0.81
  		c-0.52,0.54-0.78,1.25-0.78,2.15c0,0.85,0.24,1.53,0.73,2.04c0.49,0.51,1.13,0.76,1.92,0.76c0.73,0,1.37-0.17,1.9-0.52v1.19
  		c-0.58,0.3-1.31,0.45-2.18,0.45c-1.12,0-2.03-0.36-2.7-1.07C7.34,17.24,7,16.3,7,15.15c0-1.24,0.38-2.24,1.14-3
  		C8.91,11.38,9.87,11,11.03,11c0.75,0,1.37,0.11,1.87,0.32V12.59z M18.74,17.87c-0.16,0.27-0.37,0.49-0.64,0.66
  		c-0.27,0.17-0.58,0.29-0.93,0.37c-0.35,0.08-0.72,0.11-1.11,0.11c-0.13,0-0.29-0.01-0.48-0.03c-0.19-0.02-0.38-0.05-0.58-0.09
  		c-0.2-0.04-0.39-0.08-0.56-0.14c-0.18-0.05-0.32-0.12-0.43-0.18v-1.32c0.12,0.11,0.26,0.21,0.42,0.29
  		c0.16,0.09,0.34,0.16,0.52,0.22c0.18,0.06,0.37,0.11,0.55,0.14c0.18,0.03,0.35,0.05,0.51,0.05c0.54,0,0.94-0.09,1.21-0.27
  		c0.26-0.18,0.4-0.44,0.4-0.78c0-0.18-0.05-0.34-0.13-0.48c-0.09-0.13-0.21-0.26-0.37-0.37c-0.16-0.11-0.35-0.22-0.56-0.32
  		c-0.21-0.1-0.44-0.21-0.69-0.32c-0.26-0.14-0.51-0.28-0.74-0.43c-0.23-0.14-0.42-0.3-0.59-0.48c-0.17-0.17-0.3-0.37-0.39-0.59
  		s-0.14-0.48-0.14-0.77c0-0.36,0.08-0.68,0.25-0.95c0.16-0.27,0.38-0.49,0.65-0.66c0.27-0.17,0.57-0.3,0.92-0.39
  		c0.34-0.08,0.69-0.13,1.05-0.13c0.81,0,1.4,0.09,1.77,0.28v1.27c-0.44-0.32-1-0.48-1.7-0.48c-0.19,0-0.38,0.02-0.57,0.05
  		c-0.19,0.04-0.36,0.1-0.51,0.18c-0.15,0.08-0.27,0.19-0.37,0.32c-0.09,0.13-0.14,0.29-0.14,0.47c0,0.17,0.04,0.32,0.11,0.45
  		c0.07,0.13,0.18,0.24,0.32,0.35c0.14,0.1,0.31,0.21,0.51,0.31c0.2,0.1,0.43,0.21,0.69,0.32c0.27,0.14,0.53,0.29,0.77,0.44
  		c0.24,0.16,0.45,0.33,0.63,0.51c0.18,0.19,0.33,0.4,0.43,0.62c0.11,0.23,0.16,0.49,0.16,0.78C18.97,17.27,18.89,17.6,18.74,17.87z
  		 M24.76,17.87c-0.16,0.27-0.37,0.49-0.64,0.66c-0.27,0.17-0.58,0.29-0.93,0.37c-0.35,0.08-0.72,0.11-1.11,0.11
  		c-0.13,0-0.29-0.01-0.48-0.03c-0.19-0.02-0.38-0.05-0.58-0.09c-0.2-0.04-0.39-0.08-0.56-0.14c-0.18-0.05-0.32-0.12-0.43-0.18v-1.32
  		c0.12,0.11,0.26,0.21,0.42,0.29c0.16,0.09,0.34,0.16,0.52,0.22c0.18,0.06,0.37,0.11,0.55,0.14c0.18,0.03,0.35,0.05,0.51,0.05
  		c0.54,0,0.94-0.09,1.21-0.27c0.27-0.18,0.4-0.44,0.4-0.78c0-0.18-0.04-0.34-0.13-0.48c-0.09-0.13-0.21-0.26-0.37-0.37
  		c-0.16-0.11-0.34-0.22-0.56-0.32c-0.21-0.1-0.44-0.21-0.69-0.32c-0.26-0.14-0.51-0.28-0.74-0.43c-0.23-0.14-0.42-0.3-0.59-0.48
  		c-0.17-0.17-0.3-0.37-0.39-0.59s-0.14-0.48-0.14-0.77c0-0.36,0.08-0.68,0.25-0.95c0.16-0.27,0.38-0.49,0.65-0.66
  		c0.27-0.17,0.57-0.3,0.92-0.39c0.34-0.08,0.69-0.13,1.05-0.13c0.81,0,1.4,0.09,1.77,0.28v1.27c-0.44-0.32-1.01-0.48-1.7-0.48
  		c-0.19,0-0.38,0.02-0.57,0.05c-0.19,0.04-0.36,0.1-0.51,0.18c-0.15,0.08-0.27,0.19-0.37,0.32c-0.09,0.13-0.14,0.29-0.14,0.47
  		c0,0.17,0.04,0.32,0.11,0.45c0.07,0.13,0.18,0.24,0.32,0.35c0.14,0.1,0.31,0.21,0.51,0.31c0.2,0.1,0.43,0.21,0.69,0.32
  		c0.27,0.14,0.53,0.29,0.76,0.44c0.24,0.16,0.45,0.33,0.63,0.51c0.18,0.19,0.33,0.4,0.43,0.62c0.11,0.23,0.16,0.49,0.16,0.78
  		C25,17.27,24.92,17.6,24.76,17.87z"/>
  </g>
  </svg>
  
</svg>
