<?xml version="1.0" encoding="utf-8"?>
<svg version="1.1" xmlns="http://www.w3.org/2000/svg">
  <style type="text/css">
    @media screen {
      #small {
        display: initial;
      }
      #medium, #large {
        display: none;
      }
    }
    @media screen and (min-width: 24px) {
      #small {
        display: none;
      }
      #medium {
        display: initial;
      }
    }
    @media screen and (min-width: 32px) {
      #medium {
        display: none;
      }
      #large {
        display: initial;
      }
    }
  </style>
  <svg id="small" version="1.1" xmlns="http://www.w3.org/2000/svg" xmlns:xlink="http://www.w3.org/1999/xlink" x="0px" y="0px"
  	 viewBox="0 0 16 16" enable-background="new 0 0 16 16">
  <g>
  	<polygon fill="#3D4242" points="2,4 3,4 3,3 1,3 1,5 2,5 	"/>
  	<polygon fill="#3D4242" points="13,3 13,4 14,4 14,5 15,5 15,3 	"/>
  	<polygon fill="#3D4242" points="2,11 1,11 1,13 3,13 3,12 2,12 	"/>
  	<polygon fill="#3D4242" points="14,12 13,12 13,13 15,13 15,11 14,11 	"/>
  	<rect x="14" y="7" fill="#3D4242" width="1" height="2"/>
  	<rect x="1" y="7" fill="#3D4242" width="1" height="2"/>
  	<rect x="5" y="3" fill="#3D4242" width="2" height="1"/>
  	<rect x="9" y="3" fill="#3D4242" width="2" height="1"/>
  	<rect x="5" y="12" fill="#3D4242" width="2" height="1"/>
  	<rect x="9" y="12" fill="#3D4242" width="2" height="1"/>
  	<rect x="3" y="5" fill="#3D4242" width="10" height="6"/>
  </g>
  </svg>
  
  <svg id="medium" version="1.1" xmlns="http://www.w3.org/2000/svg" xmlns:xlink="http://www.w3.org/1999/xlink" x="0px" y="0px"
  	 viewBox="0 0 24 24" enable-background="new 0 0 24 24">
  <g>
  	<polygon fill="#3D4242" points="2,5 3,5 3,4 1,4 1,6 2,6 	"/>
  	<polygon fill="#3D4242" points="21,4 21,5 22,5 22,6 23,6 23,4 	"/>
  	<polygon fill="#3D4242" points="2,18 1,18 1,20 3,20 3,19 2,19 	"/>
  	<polygon fill="#3D4242" points="22,19 21,19 21,20 23,20 23,18 22,18 	"/>
  	<rect x="1" y="8" fill="#3D4242" width="1" height="3"/>
  	<rect x="1" y="13" fill="#3D4242" width="1" height="3"/>
  	<rect x="22" y="8" fill="#3D4242" width="1" height="3"/>
  	<rect x="22" y="13" fill="#3D4242" width="1" height="3"/>
  	<rect x="5" y="19" fill="#3D4242" width="2" height="1"/>
  	<rect x="9" y="19" fill="#3D4242" width="2" height="1"/>
  	<rect x="13" y="19" fill="#3D4242" width="2" height="1"/>
  	<rect x="17" y="19" fill="#3D4242" width="2" height="1"/>
  	<rect x="5" y="4" fill="#3D4242" width="2" height="1"/>
  	<rect x="9" y="4" fill="#3D4242" width="2" height="1"/>
  	<rect x="13" y="4" fill="#3D4242" width="2" height="1"/>
  	<rect x="17" y="4" fill="#3D4242" width="2" height="1"/>
  	<rect x="3" y="6" fill="#3D4242" width="18" height="12"/>
  </g>
  </svg>
  
  <svg id="large" version="1.1" xmlns="http://www.w3.org/2000/svg" xmlns:xlink="http://www.w3.org/1999/xlink" x="0px" y="0px"
  	 viewBox="0 0 32 32" enable-background="new 0 0 32 32">
  <g>
  	<polygon fill="#3D4242" points="3,7 5,7 5,5 1,5 1,9 3,9 	"/>
  	<polygon fill="#3D4242" points="3,23 1,23 1,27 5,27 5,25 3,25 	"/>
  	<polygon fill="#3D4242" points="27,5 27,7 29,7 29,9 31,9 31,5 	"/>
  	<polygon fill="#3D4242" points="29,25 27,25 27,27 31,27 31,23 29,23 	"/>
  	<rect x="1" y="11" fill="#3D4242" width="2" height="4"/>
  	<rect x="1" y="17" fill="#3D4242" width="2" height="4"/>
  	<rect x="29" y="11" fill="#3D4242" width="2" height="4"/>
  	<rect x="29" y="17" fill="#3D4242" width="2" height="4"/>
  	<rect x="7" y="5" fill="#3D4242" width="3" height="2"/>
  	<rect x="12" y="5" fill="#3D4242" width="3" height="2"/>
  	<rect x="17" y="5" fill="#3D4242" width="3" height="2"/>
  	<rect x="22" y="5" fill="#3D4242" width="3" height="2"/>
  	<rect x="7" y="25" fill="#3D4242" width="3" height="2"/>
  	<rect x="12" y="25" fill="#3D4242" width="3" height="2"/>
  	<rect x="17" y="25" fill="#3D4242" width="3" height="2"/>
  	<rect x="22" y="25" fill="#3D4242" width="3" height="2"/>
  	<rect x="5" y="9" fill="#3D4242" width="22" height="14"/>
  </g>
  </svg>
  
</svg>
