<?xml version="1.0" encoding="utf-8"?>
<svg version="1.1" xmlns="http://www.w3.org/2000/svg">
  <style type="text/css">
    @media screen {
      #small {
        display: initial;
      }
      #medium, #large {
        display: none;
      }
    }
    @media screen and (min-width: 24px) {
      #small {
        display: none;
      }
      #medium {
        display: initial;
      }
    }
    @media screen and (min-width: 32px) {
      #medium {
        display: none;
      }
      #large {
        display: initial;
      }
    }
  </style>
  <svg id="small" version="1.1" xmlns="http://www.w3.org/2000/svg" xmlns:xlink="http://www.w3.org/1999/xlink" x="0px" y="0px"
  	 viewBox="0 0 16 16" enable-background="new 0 0 16 16">
  <path fill="#3D4242" d="M14.12,13.58c1.3-1.3,1.15-3.56-0.34-5.04L7.73,2.48c-1.11-1.11-2.77-1.26-3.7-0.34
  	C3.1,3.07,3.25,4.73,4.36,5.84l5.38,5.38c0.74,0.74,1.8,0.89,2.35,0.34c0.56-0.56,0.41-1.61-0.34-2.35L7.05,4.5L6.38,5.17l4.71,4.71
  	c0.37,0.37,0.52,0.82,0.34,1.01c-0.19,0.19-0.64,0.04-1.01-0.34L5.04,5.17C4.29,4.43,4.14,3.38,4.7,2.82
  	c0.56-0.56,1.61-0.41,2.35,0.34l6.05,6.05c1.11,1.11,1.26,2.77,0.34,3.7c-0.93,0.93-2.59,0.78-3.7-0.34L1.67,4.5L1,5.17l8.07,8.07
  	C10.56,14.73,12.82,14.88,14.12,13.58z"/>
  </svg>
  
  <svg id="medium" version="1.1" xmlns="http://www.w3.org/2000/svg" xmlns:xlink="http://www.w3.org/1999/xlink" x="0px" y="0px"
  	 viewBox="0 0 24 24" enable-background="new 0 0 24 24">
  <path fill="#3D4242" d="M21.61,20.93c2.04-2.04,1.8-5.59-0.53-7.93l-9.51-9.51C9.82,1.73,7.21,1.5,5.76,2.96
  	C4.3,4.42,4.53,7.02,6.29,8.77l8.45,8.45c1.17,1.17,2.83,1.41,3.7,0.53c0.88-0.88,0.64-2.53-0.53-3.7l-7.4-7.4L9.46,7.71l7.4,7.4
  	c0.58,0.58,0.82,1.29,0.53,1.59c-0.29,0.29-1,0.06-1.58-0.53L7.34,7.71c-1.17-1.17-1.4-2.83-0.53-3.7c0.87-0.87,2.53-0.64,3.7,0.53
  	l9.51,9.51c1.75,1.75,1.99,4.35,0.53,5.81c-1.46,1.46-4.06,1.22-5.81-0.53L2.06,6.66L1,7.71L13.68,20.4
  	C16.02,22.73,19.57,22.97,21.61,20.93z"/>
  </svg>
  
  <svg id="large" version="1.1" xmlns="http://www.w3.org/2000/svg" xmlns:xlink="http://www.w3.org/1999/xlink" x="0px" y="0px"
  	 viewBox="0 0 32 32" enable-background="new 0 0 32 32">
  <path fill="#3D4242" d="M29.11,28.11c2.78-2.79,2.46-7.63-0.72-10.81L15.41,4.32C13.02,1.94,9.48,1.61,7.49,3.6
  	C5.5,5.59,5.82,9.14,8.21,11.53l11.53,11.53c1.59,1.59,3.85,1.92,5.05,0.72c1.19-1.19,0.87-3.45-0.72-5.04L13.97,8.65l-1.44,1.44
  	l10.09,10.09c0.8,0.8,1.12,1.76,0.72,2.16c-0.4,0.4-1.37,0.08-2.16-0.72L9.65,10.09C8.06,8.5,7.73,6.24,8.93,5.04
  	c1.19-1.19,3.45-0.87,5.05,0.72l12.97,12.97c2.39,2.39,2.71,5.94,0.72,7.93c-1.99,1.99-5.54,1.67-7.93-0.72L2.44,8.65L1,10.09
  	l17.3,17.29C21.48,30.57,26.32,30.89,29.11,28.11z"/>
  </svg>
  
</svg>
