<?xml version="1.0" encoding="utf-8"?>
<svg version="1.1" xmlns="http://www.w3.org/2000/svg">
  <style type="text/css">
    @media screen {
      #small {
        display: initial;
      }
      #medium, #large {
        display: none;
      }
    }
    @media screen and (min-width: 24px) {
      #small {
        display: none;
      }
      #medium {
        display: initial;
      }
    }
    @media screen and (min-width: 32px) {
      #medium {
        display: none;
      }
      #large {
        display: initial;
      }
    }
  </style>
  <svg id="small" version="1.1" xmlns="http://www.w3.org/2000/svg" xmlns:xlink="http://www.w3.org/1999/xlink" x="0px" y="0px"
  	 viewBox="0 0 16 16" enable-background="new 0 0 16 16">
  <polygon fill="#3D4242" points="13,11 13,8 13,8 9,8 9,5 12,5 12,1 5,1 5,5 8,5 8,8 3,8 3,8 3,11 1,11 1,15 5,15 5,11 4,11 4,9 8,9 
  	8,11 6,11 6,15 10,15 10,11 9,11 9,9 12,9 12,11 11,11 11,15 15,15 15,11 "/>
  </svg>
  
  <svg id="medium" version="1.1" xmlns="http://www.w3.org/2000/svg" xmlns:xlink="http://www.w3.org/1999/xlink" x="0px" y="0px"
  	 viewBox="0 0 24 24" enable-background="new 0 0 24 24">
  <polygon fill="#3D4242" points="21,17 21,11 19,11 13,11 13,7 17,7 17,1 7,1 7,7 11,7 11,11 3,11 3,12 3,17 1,17 1,23 7,23 7,17 
  	5,17 5,13 11,13 11,17 9,17 9,23 15,23 15,17 13,17 13,13 19,13 19,17 17,17 17,23 23,23 23,17 "/>
  </svg>
  
  <svg id="large" version="1.1" xmlns="http://www.w3.org/2000/svg" xmlns:xlink="http://www.w3.org/1999/xlink" x="0px" y="0px"
  	 viewBox="0 0 32 32" enable-background="new 0 0 32 32">
  <polygon fill="#3D4242" points="28,23 28,16 26.71,16 17,16 17,10 23,10 23,1 9,1 9,10 15,10 15,16 4,16 4,16 4,23 1,23 1,31 9,31 
  	9,23 6,23 6,18 15,18 15,23 12,23 12,31 20,31 20,23 17,23 17,18 26,18 26,23 23,23 23,31 31,31 31,23 "/>
  </svg>
  
</svg>
