<?xml version="1.0" encoding="utf-8"?>
<svg version="1.1" xmlns="http://www.w3.org/2000/svg">
  <style type="text/css">
    @media screen {
      #small {
        display: initial;
      }
      #medium, #large {
        display: none;
      }
    }
    @media screen and (min-width: 24px) {
      #small {
        display: none;
      }
      #medium {
        display: initial;
      }
    }
    @media screen and (min-width: 32px) {
      #medium {
        display: none;
      }
      #large {
        display: initial;
      }
    }
  </style>
  <svg id="small" version="1.1" xmlns="http://www.w3.org/2000/svg" xmlns:xlink="http://www.w3.org/1999/xlink" x="0px" y="0px"
  	 viewBox="0 0 16 16" enable-background="new 0 0 16 16">
  <rect x="12" y="2" fill="#3D4242" width="1" height="12"/>
  <path fill="#3D4242" d="M13,2c0,0,5.04,2,2.04,5c-1-1-1-1-1-1S16,5,13,4C13,3,13,2,13,2z"/>
  <path fill="#3D4242" d="M13,14c0,1.1-1.34,2-3,2c-1.66,0-2.96-0.9-2.96-2s1.3-2,2.96-2C11.66,12,13,12.9,13,14z"/>
  <path fill="#3D4242" d="M8.04,2c-3.31,0-6,2.69-6,6c0,2.45,1.47,4.55,3.58,5.49C5.99,12.07,7.82,11,10.04,11
  	c0.34,0,0.68,0.03,1,0.08V2.81C10.16,2.3,9.14,2,8.04,2z M8.04,10c-1.1,0-2-0.9-2-2s0.9-2,2-2c1.1,0,2,0.9,2,2S9.15,10,8.04,10z"/>
  </svg>
  
  <svg id="medium" version="1.1" xmlns="http://www.w3.org/2000/svg" xmlns:xlink="http://www.w3.org/1999/xlink" x="0px" y="0px"
  	 viewBox="0 0 24 24" enable-background="new 0 0 24 24">
  <ellipse fill="#3D4242" cx="14.75" cy="21" rx="4.5" ry="3"/>
  <rect x="17.25" y="2" fill="#3D4242" width="2" height="19"/>
  <path fill="#3D4242" d="M19.25,2c0,0,7,2,4,8c-2-2-2-2-2-2s1-2-2-3C19.25,3,19.25,2,19.25,2z"/>
  <g>
  	<path fill="#3D4242" d="M20.25,7.28v8.45c0.63-1.27,1-2.71,1-4.22S20.89,8.55,20.25,7.28z"/>
  	<path fill="#3D4242" d="M14.75,17c0.52,0,1.02,0.05,1.5,0.13v-14C14.91,2.41,13.38,2,11.75,2c-5.25,0-9.5,4.25-9.5,9.5
  		c0,4.21,2.75,7.78,6.55,9.03C9.15,18.54,11.68,17,14.75,17z M11.75,8c1.93,0,3.5,1.57,3.5,3.5s-1.57,3.5-3.5,3.5
  		c-1.93,0-3.5-1.57-3.5-3.5S9.82,8,11.75,8z"/>
  </g>
  </svg>
  
  <svg id="large" version="1.1" xmlns="http://www.w3.org/2000/svg" xmlns:xlink="http://www.w3.org/1999/xlink" x="0px" y="0px"
  	 viewBox="0 0 32 32" enable-background="new 0 0 32 32">
  <ellipse fill="#3D4242" cx="20.08" cy="28" rx="6" ry="4"/>
  <rect x="24.08" y="2" fill="#3D4242" width="2" height="26"/>
  <path fill="#3D4242" d="M26.08,2c0,0,10,3,4,11c-2-2-2-2-2-2s4-3-2-6C26.08,3,26.08,2,26.08,2z"/>
  <g>
  	<path fill="#3D4242" d="M27.08,10v9.99c0.64-1.54,1-3.22,1-4.99C28.08,13.23,27.73,11.54,27.08,10z"/>
  	<path fill="#3D4242" d="M23.08,4.77C20.88,3.04,18.1,2,15.08,2c-7.18,0-13,5.82-13,13c0,6.33,4.53,11.6,10.52,12.76
  		c0.19-2.65,3.46-4.76,7.48-4.76c1.07,0,2.08,0.17,3,0.44V4.77z M15.08,19c-2.21,0-4-1.79-4-4s1.79-4,4-4s4,1.79,4,4
  		S17.29,19,15.08,19z"/>
  </g>
  </svg>
  
</svg>
