<?xml version="1.0" encoding="utf-8"?>
<svg version="1.1" xmlns="http://www.w3.org/2000/svg">
  <style type="text/css">
    @media screen {
      #small {
        display: initial;
      }
      #medium, #large {
        display: none;
      }
    }
    @media screen and (min-width: 24px) {
      #small {
        display: none;
      }
      #medium {
        display: initial;
      }
    }
    @media screen and (min-width: 32px) {
      #medium {
        display: none;
      }
      #large {
        display: initial;
      }
    }
  </style>
  <svg id="small" version="1.1" xmlns="http://www.w3.org/2000/svg" xmlns:xlink="http://www.w3.org/1999/xlink" x="0px" y="0px"
  	 viewBox="0 0 16 16" style="enable-background:new 0 0 16 16;">
  <style type="text/css">
  	.st0{fill:#3D4242;}
  </style>
  <path class="st0" d="M13,4v5l-1,1l-1-1V4V2c0-0.55-0.45-1-1-1H6C5.45,1,5,1.45,5,2v2v5l-1,1L3,9V4C1.9,4,1,4.9,1,6v6
  	c0,1.1,0.9,2,2,2h10c1.1,0,2-0.9,2-2V6C15,4.9,14.1,4,13,4z M10,4H6V2.5C6,2.22,6.22,2,6.5,2h3C9.77,2,10,2.22,10,2.5V4z"/>
  </svg>
  
  <svg id="medium" version="1.1" xmlns="http://www.w3.org/2000/svg" xmlns:xlink="http://www.w3.org/1999/xlink" x="0px" y="0px"
  	 viewBox="0 0 24 24" style="enable-background:new 0 0 24 24;">
  <style type="text/css">
  	.st0{fill:#3D4242;}
  </style>
  <path class="st0" d="M20,6v8l-1.5,2L17,14v-4V6V4c0-1.1-0.9-2-2-2H9C7.9,2,7,2.9,7,4v2v4v4l-1.5,2L4,14V6C2.35,6,1,7.35,1,9v10
  	c0,1.65,1.35,3,3,3h16c1.65,0,3-1.35,3-3V9C23,7.35,21.65,6,20,6z M9,5c0-0.55,0.45-1,1-1h4c0.55,0,1,0.45,1,1v1H9V5z"/>
  </svg>
  
  <svg id="large" version="1.1" xmlns="http://www.w3.org/2000/svg" xmlns:xlink="http://www.w3.org/1999/xlink" x="0px" y="0px"
  	 viewBox="0 0 32 32" style="enable-background:new 0 0 32 32;">
  <style type="text/css">
  	.st0{fill:#3D4242;}
  </style>
  <path class="st0" d="M28,8h-2v11l-2,2l-2-2V8V4c0-1.1-0.9-2-2-2h-8c-1.1,0-2,0.9-2,2v4v11l-2,2l-2-2V8H4c-1.65,0-3,1.35-3,3v16
  	c0,1.65,1.35,3,3,3h24c1.65,0,3-1.35,3-3V11C31,9.35,29.65,8,28,8z M20,8h-8V5c0-0.55,0.45-1,1-1h6c0.55,0,1,0.45,1,1V8z"/>
  </svg>
  
</svg>
