<?xml version="1.0" encoding="utf-8"?>
<svg version="1.1" xmlns="http://www.w3.org/2000/svg">
  <style type="text/css">
    @media screen {
      #small {
        display: initial;
      }
      #medium, #large {
        display: none;
      }
    }
    @media screen and (min-width: 24px) {
      #small {
        display: none;
      }
      #medium {
        display: initial;
      }
    }
    @media screen and (min-width: 32px) {
      #medium {
        display: none;
      }
      #large {
        display: initial;
      }
    }
  </style>
  <svg id="small" version="1.1" xmlns="http://www.w3.org/2000/svg" xmlns:xlink="http://www.w3.org/1999/xlink" x="0px" y="0px"
  	 viewBox="0 0 16 16" enable-background="new 0 0 16 16">
  <g>
  	<path fill="#3D4242" d="M3,15c0,0,8,0,10,0s2-2,2-2H1C1,15,3,15,3,15z"/>
  	<polygon fill="#3D4242" points="7,5 9,5 8,4 11,2 7,1 9,2 6,4 	"/>
  	<path fill="#3D4242" d="M11,12l0.54-1.63C11.91,10.75,12.42,11,13,11c1.1,0,2-0.9,2-2s-0.9-2-2-2c-0.12,0-0.23,0.02-0.34,0.04L13,6
  		H3l2,6H11z M13,8c0.55,0,1,0.45,1,1s-0.45,1-1,1c-0.55,0-1-0.45-1-1S12.45,8,13,8z"/>
  </g>
  </svg>
  
  <svg id="medium" version="1.1" xmlns="http://www.w3.org/2000/svg" xmlns:xlink="http://www.w3.org/1999/xlink" x="0px" y="0px"
  	 viewBox="0 0 24 24" enable-background="new 0 0 24 24">
  <g>
  	<path fill="#3D4242" d="M17,19l1.11-3.69C18.63,15.73,19.28,16,20,16c1.66,0,3-1.34,3-3s-1.34-3-3-3c-0.11,0-0.21,0.02-0.31,0.03
  		L20,9H4l3,10H17z M20,11c1.1,0,2,0.9,2,2s-0.9,2-2,2c-1.1,0-2-0.9-2-2S18.9,11,20,11z"/>
  	<polygon fill="#3D4242" points="11,8 14,8 12,6 17,3 11,1 14,3 9,6 	"/>
  	<path fill="#3D4242" d="M4,23c0,0,13,0,16,0s3-3,3-3H1C1,23,4,23,4,23z"/>
  </g>
  </svg>
  
  <svg id="large" version="1.1" xmlns="http://www.w3.org/2000/svg" xmlns:xlink="http://www.w3.org/1999/xlink" x="0px" y="0px"
  	 viewBox="0 0 32 32" enable-background="new 0 0 32 32">
  <g>
  	<path fill="#3D4242" d="M4,31c0,0,20,0,24,0c3,0,3-3,3-3H1C1,31,4,31,4,31z"/>
  	<path fill="#3D4242" d="M23,26l1.19-4.16C24.91,22.56,25.9,23,27,23c2.21,0,4-1.79,4-4s-1.79-4-4-4c-0.31,0-0.6,0.04-0.89,0.11
  		L27,12H5l4,14H23z M27,17c1.1,0,2,0.9,2,2s-0.9,2-2,2c-1.1,0-2-0.9-2-2S25.9,17,27,17z"/>
  	<polygon fill="#3D4242" points="14,10 19,10 15,7 21,4 13,1 17,4 11,7 	"/>
  </g>
  </svg>
  
</svg>
