<svg version="1" xmlns="http://www.w3.org/2000/svg" width="400" height="400" viewBox="0 0 300.000000 300.000000"><path d="M126.5 2.5C86.2 8.9 49.8 31.8 26.9 65.2 1.8 101.8-5.8 146.2 5.7 189 20 242.7 64 284.3 119.2 296.1c12 2.6 39.2 3.6 50.9 2 24.6-3.5 47.2-12.5 67.9-27 9.8-6.8 28.6-26.2 35.9-36.9 29.7-43.9 34.3-100.3 12-147.2-5.8-12.1-9.1-17.6-16.9-27.8l-5.5-7.3-.3 14.6-.3 14.5H256V67.7c0-15.8-.5-16.7-8.8-16.7h-5.1l-.3 14.7-.3 14.8h-7l-.3-14.8-.3-14.7H220v30h-7V43h20.8l20.7-.1-6-5.5C230 20.5 202.9 7.6 176.2 3 162.9.7 139.3.4 126.5 2.5zm86 98v12l-44.5.3-44.5.2-5.2 5.2-5.3 5.2v53.2l5.3 5.2 5.2 5.2 44.5.2 44.5.3v24l-49 .3-49 .2-13.2-13.2L88 185.5v-71l13.2-13.2L114.5 88l49 .2 49 .3v12z"/></svg>