<svg xmlns="http://www.w3.org/2000/svg" width="239" height="40" viewBox="0 0 239 40">
  <path class="st0"
        d="M3.4 11.6L0 15 0 24 3.4 27.3 15.8 27.3 15.8 24.2 4.6 24.2 3.3 22.9 3.3 16.1 4.6 14.8 15.8 14.8 15.8 11.6z"/>
  <path class="st0" d="M20.6,11.6v15.7h16.2V11.6H20.6z M33.5,24.2h-9.7v-9.4h9.7V24.2z"/>
  <path class="st0"
        d="M55.6,18.6v-2.4l-0.9-0.9H46v3.3H55.6z M42.8,11.6h12.8l3.2,3.3v6.6h-4.3l5.9,5.8h-4.1l-6-5.7H46v5.7h-3.2V11.6z"/>
  <path class="st0"
        d="M64.8 11.6L80.4 11.6 80.4 14.8 68.2 14.8 68.2 17.9 77.5 17.9 77.5 21 68.2 21 68.2 24.1 80.4 24.1 80.4 27.3 64.8 27.3z"/>
  <path class="st0"
        d="M86.1 11.6L103.8 11.6 107.1 15 107.1 27.3 104 27.3 104 16.1 102.7 14.8 98.2 14.8 98.2 27.3 95 27.3 95 14.8 89.2 14.8 89.2 27.3 86.1 27.3z"/>
  <path class="st0"
        d="M113 11.6L128.6 11.6 128.6 14.8 116.4 14.8 116.4 17.9 125.7 17.9 125.7 21 116.4 21 116.4 24.1 128.6 24.1 128.6 27.3 113 27.3z"/>
  <path class="st0"
        d="M146.3,24.2l1.3-1.3v-6.8l-1.3-1.3h-9v9.4C137.3,24.2,146.3,24.2,146.3,24.2z M134,11.6h13.5l3.4,3.4v9l-3.4,3.4H134V11.6z"/>
  <path class="st0" d="M156.2 27.3L159.5 27.3 159.5 11.6 156.2 11.6z"/>
  <path class="st0" d="M178.5,18.2v-2.4l-1-1h-8.8v3.4H178.5z M165.5,11.6h12.8l3.4,3.4v12.4h-3.2v-6h-9.8v6h-3.2V11.6z"/>
  <path class="st0"
        d="M226.6,14.7h-11.5l-1.4,1.3v7l1.3,1.3h11.6v3.3h-12.8l-3.5-3.5v-9.2l3.5-3.5h12.8V14.7z M233.2,10.5h-1V6.9l-0.4-0.4h-1.4v3.9h-1V6.6h-1.8v3.9h-1v-5h5.5c-3.5-3.4-8.3-5.5-13.6-5.5C207.7,0,199,8.7,199,19.5S207.7,39,218.5,39S238,30.3,238,19.5c0-4.9-1.8-9.4-4.8-12.8V10.5z"/>
</svg>
