<svg xmlns="http://www.w3.org/2000/svg" xmlns:xlink="http://www.w3.org/1999/xlink" width="115" height="41" viewBox="0 0 115 41">
    <defs>
        <path id="a" d="M0 13h13V0H0v13z"/>
    </defs>
    <g fill="none" fill-rule="evenodd">
        <path fill="#000" d="M13.644 32.432c-2.016 0-3.78-.312-5.292-.936-1.512-.624-2.766-1.482-3.762-2.574-.996-1.092-1.74-2.376-2.232-3.852-.492-1.476-.738-3.066-.738-4.77 0-1.416.246-2.844.738-4.284A11.85 11.85 0 0 1 4.59 12.11c.996-1.164 2.25-2.112 3.762-2.844 1.512-.732 3.276-1.098 5.292-1.098.792 0 1.518.018 2.178.054.66.036 1.29.096 1.89.18.6.084 1.188.192 1.764.324.576.132 1.176.282 1.8.45.024.648.108 1.44.252 2.376.144.936.336 1.884.576 2.844a1.278 1.278 0 0 1-.576.144 1.77 1.77 0 0 1-.522-.072c-.156-.048-.258-.18-.306-.396-.432-1.584-1.116-2.712-2.052-3.384-.936-.672-2.292-1.008-4.068-1.008-1.488 0-2.802.24-3.942.72-1.14.48-2.1 1.152-2.88 2.016-.78.864-1.368 1.902-1.764 3.114-.396 1.212-.594 2.562-.594 4.05 0 1.656.252 3.18.756 4.572s1.182 2.592 2.034 3.6a9.047 9.047 0 0 0 2.988 2.34 8.276 8.276 0 0 0 3.654.828c1.032 0 1.902-.102 2.61-.306.708-.204 1.296-.498 1.764-.882a5.107 5.107 0 0 0 1.188-1.422c.324-.564.63-1.206.918-1.926.168-.36.456-.54.864-.54.12 0 .246.018.378.054.132.036.234.078.306.126-.288.84-.576 1.764-.864 2.772a34.506 34.506 0 0 0-.72 3.024 49.143 49.143 0 0 1-3.6.45 46.108 46.108 0 0 1-4.032.162zm26.712-1.404c.264 0 .408.252.432.756-.624.432-1.416.648-2.376.648-.528 0-.984-.078-1.368-.234a2.896 2.896 0 0 1-.972-.63 2.852 2.852 0 0 1-.612-.9 3.97 3.97 0 0 1-.288-1.044c-.6 1.08-1.314 1.818-2.142 2.214-.828.396-1.782.594-2.862.594-.48 0-.99-.042-1.53-.126a4.627 4.627 0 0 1-1.53-.522 3.301 3.301 0 0 1-1.188-1.116c-.312-.48-.468-1.116-.468-1.908 0-.888.21-1.638.63-2.25.42-.612.96-1.116 1.62-1.512a9.755 9.755 0 0 1 2.16-.954c.78-.24 1.53-.444 2.25-.612.408-.072.786-.15 1.134-.234.348-.084.654-.174.918-.27.336-.096.546-.228.63-.396.084-.168.126-.492.126-.972 0-1.128-.216-2.058-.648-2.79-.432-.732-1.2-1.098-2.304-1.098-.408 0-.756.048-1.044.144a1.713 1.713 0 0 0-.72.45c-.192.204-.36.474-.504.81-.144.336-.288.732-.432 1.188a.865.865 0 0 1-.486.576c-.252.12-.678.264-1.278.432a5.567 5.567 0 0 1-.54.144 2.577 2.577 0 0 1-.54.072c-.24 0-.36-.252-.36-.756 0-.528.204-1.056.612-1.584.408-.528.93-.996 1.566-1.404a9.403 9.403 0 0 1 2.07-.99c.744-.252 1.452-.378 2.124-.378.84 0 1.596.072 2.268.216.672.144 1.248.408 1.728.792.48.384.846.9 1.098 1.548.252.648.378 1.488.378 2.52v6.192c0 .84.03 1.446.09 1.818.06.372.15.666.27.882.168.336.354.558.558.666.204.108.414.162.63.162.264 0 .45-.024.558-.072a.833.833 0 0 1 .342-.072zm-5.436-7.02l-1.152.18c-.624.12-1.23.264-1.818.432a5.656 5.656 0 0 0-1.566.702c-.456.3-.822.678-1.098 1.134-.276.456-.414 1.02-.414 1.692 0 .912.234 1.608.702 2.088.468.48 1.05.72 1.746.72.456 0 .906-.102 1.35-.306a3.387 3.387 0 0 0 1.152-.864 4.62 4.62 0 0 0 .792-1.314 4.373 4.373 0 0 0 .306-1.656v-2.808zm15.3 8.172c-.624-.048-1.26-.09-1.908-.126A35.04 35.04 0 0 0 46.368 32c-.648 0-1.314.018-1.998.054-.684.036-1.326.078-1.926.126a3.097 3.097 0 0 1-.072-.576c0-.24.108-.384.324-.432a7.823 7.823 0 0 0 1.476-.414c.456-.18.684-.462.684-.846V10.544c0-.768-.15-1.29-.45-1.566-.3-.276-.87-.45-1.71-.522-.312-.048-.468-.216-.468-.504 0-.144.024-.312.072-.504.312 0 .744-.018 1.296-.054a38.42 38.42 0 0 0 1.512-.126 10.737 10.737 0 0 0 1.476-.288c.432-.12.744-.18.936-.18.216 0 .36.048.432.144a.647.647 0 0 1 .108.396c0 .408-.036.882-.108 1.422-.072.54-.108 1.17-.108 1.89v19.26c0 .384.222.666.666.846.444.18.942.318 1.494.414.192.048.288.192.288.432 0 .144-.024.336-.072.576zm6.12-.18c-.408 0-.822.006-1.242.018-.42.012-.81.03-1.17.054-.36.024-.672.048-.936.072a7.615 7.615 0 0 1-.504.036c0-.024-.012-.108-.036-.252a2.166 2.166 0 0 1-.036-.324c0-.24.108-.384.324-.432.624-.12 1.128-.264 1.512-.432.384-.168.576-.444.576-.828V20.12c0-.72-.126-1.236-.378-1.548-.252-.312-.798-.504-1.638-.576-.312-.048-.468-.216-.468-.504 0-.12.024-.276.072-.468.312 0 .75-.018 1.314-.054a20.978 20.978 0 0 0 1.386-.126 20.913 20.913 0 0 0 1.476-.306c.432-.108.744-.162.936-.162.336 0 .504.18.504.54 0 .336-.036.738-.108 1.206-.072.468-.108 1.086-.108 1.854v9.936c0 .384.186.66.558.828.372.168.894.312 1.566.432.192.048.288.192.288.432 0 .072-.006.18-.018.324-.012.144-.03.228-.054.252-.072 0-.234-.012-.486-.036a33.213 33.213 0 0 0-2.088-.126c-.42-.012-.834-.018-1.242-.018zm-2.088-21.636c0-.576.198-1.074.594-1.494.396-.42.894-.63 1.494-.63.576 0 1.056.21 1.44.63.384.42.576.918.576 1.494 0 .624-.192 1.128-.576 1.512-.384.384-.864.576-1.44.576-.6 0-1.098-.192-1.494-.576-.396-.384-.594-.888-.594-1.512zm17.82 10.44c-.192 0-.33-.042-.414-.126a.583.583 0 0 1-.162-.27c-.168-.984-.558-1.686-1.17-2.106-.612-.42-1.374-.63-2.286-.63-.696 0-1.314.198-1.854.594-.54.396-.81.942-.81 1.638 0 .624.246 1.146.738 1.566.492.42 1.386.834 2.682 1.242.696.216 1.338.456 1.926.72a5.913 5.913 0 0 1 1.512.954c.42.372.75.828.99 1.368.24.54.36 1.182.36 1.926 0 .624-.114 1.224-.342 1.8a4.081 4.081 0 0 1-1.044 1.512c-.468.432-1.056.78-1.764 1.044s-1.554.396-2.538.396c-.768 0-1.626-.09-2.574-.27a8.41 8.41 0 0 1-2.574-.918 81.402 81.402 0 0 1-.126-1.962 39.38 39.38 0 0 1-.054-2.07h.36c.24 0 .444.042.612.126a.505.505 0 0 1 .288.414c.096 1.008.486 1.818 1.17 2.43.684.612 1.638.918 2.862.918.984 0 1.74-.222 2.268-.666.528-.444.792-1.05.792-1.818 0-.792-.288-1.398-.864-1.818-.576-.42-1.428-.798-2.556-1.134-1.416-.432-2.526-.996-3.33-1.692-.804-.696-1.206-1.716-1.206-3.06a4.376 4.376 0 0 1 1.368-3.204c.432-.408.96-.732 1.584-.972.624-.24 1.32-.36 2.088-.36.96 0 1.866.126 2.718.378.852.252 1.518.522 1.998.81a19.217 19.217 0 0 1 .126 1.566l.036.9c.012.3.018.57.018.81l-.828-.036zm12.636 9.072c.12-.12.222-.192.306-.216a.772.772 0 0 1 .198-.036c.216 0 .408.156.576.468a8.792 8.792 0 0 1-2.016 1.692 4.404 4.404 0 0 1-2.304.648c-.48 0-.936-.054-1.368-.162a2.358 2.358 0 0 1-1.116-.63c-.312-.312-.558-.738-.738-1.278-.18-.54-.27-1.242-.27-2.106V18.32h-2.16v-.396c0-.168.03-.324.09-.468.06-.144.186-.216.378-.216.648 0 1.176-.168 1.584-.504a3.921 3.921 0 0 0 1.008-1.296c.288-.576.54-1.116.756-1.62.216-.504.456-.756.72-.756H81v3.744h4.212c0 .504-.054.882-.162 1.134-.108.252-.306.378-.594.378H81v8.928c0 .768.036 1.386.108 1.854.072.468.18.828.324 1.08.144.252.312.414.504.486.192.072.408.108.648.108.408 0 .786-.09 1.134-.27.348-.18.678-.39.99-.63zm17.604 1.152c.264 0 .408.252.432.756-.624.432-1.416.648-2.376.648-.528 0-.984-.078-1.368-.234a2.896 2.896 0 0 1-.972-.63 2.852 2.852 0 0 1-.612-.9 3.97 3.97 0 0 1-.288-1.044c-.6 1.08-1.314 1.818-2.142 2.214-.828.396-1.782.594-2.862.594-.48 0-.99-.042-1.53-.126a4.627 4.627 0 0 1-1.53-.522 3.301 3.301 0 0 1-1.188-1.116c-.312-.48-.468-1.116-.468-1.908 0-.888.21-1.638.63-2.25.42-.612.96-1.116 1.62-1.512a9.755 9.755 0 0 1 2.16-.954c.78-.24 1.53-.444 2.25-.612.408-.072.786-.15 1.134-.234.348-.084.654-.174.918-.27.336-.096.546-.228.63-.396.084-.168.126-.492.126-.972 0-1.128-.216-2.058-.648-2.79-.432-.732-1.2-1.098-2.304-1.098-.408 0-.756.048-1.044.144a1.713 1.713 0 0 0-.72.45c-.192.204-.36.474-.504.81-.144.336-.288.732-.432 1.188a.865.865 0 0 1-.486.576c-.252.12-.678.264-1.278.432a5.567 5.567 0 0 1-.54.144 2.577 2.577 0 0 1-.54.072c-.24 0-.36-.252-.36-.756 0-.528.204-1.056.612-1.584.408-.528.93-.996 1.566-1.404a9.403 9.403 0 0 1 2.07-.99c.744-.252 1.452-.378 2.124-.378.84 0 1.596.072 2.268.216.672.144 1.248.408 1.728.792.48.384.846.9 1.098 1.548.252.648.378 1.488.378 2.52v6.192c0 .84.03 1.446.09 1.818.06.372.15.666.27.882.168.336.354.558.558.666.204.108.414.162.63.162.264 0 .45-.024.558-.072a.833.833 0 0 1 .342-.072zm-5.436-7.02l-1.152.18c-.624.12-1.23.264-1.818.432a5.656 5.656 0 0 0-1.566.702c-.456.3-.822.678-1.098 1.134-.276.456-.414 1.02-.414 1.692 0 .912.234 1.608.702 2.088.468.48 1.05.72 1.746.72.456 0 .906-.102 1.35-.306a3.387 3.387 0 0 0 1.152-.864 4.62 4.62 0 0 0 .792-1.314 4.373 4.373 0 0 0 .306-1.656v-2.808z"/>
        <g transform="translate(102 6)">
            <mask id="b" fill="#fff">
                <use xlink:href="#a"/>
            </mask>
            <path fill="#000" d="M9.212 4.886H5.354l-.442.442v2.344l.442.442h3.858V9.2H4.949L3.79 8.04V4.96l1.16-1.16h4.263v1.086zm2.19-2.653v1.254h-.328V2.315l-.134-.13h-.465v1.302h-.33V2.185h-.604v1.302h-.33V1.85h1.828a6.5 6.5 0 1 0 .362.384z" mask="url(#b)"/>
        </g>
    </g>
</svg>
