<svg xmlns="http://www.w3.org/2000/svg" width="81" height="25" viewBox="0 0 81 25">
    <g fill="#000" fill-rule="evenodd">
        <path d="M8.24 24.288c-1.344 0-2.52-.208-3.528-.624-1.008-.416-1.844-.988-2.508-1.716A7.084 7.084 0 0 1 .716 19.38a9.995 9.995 0 0 1-.492-3.18c0-.944.164-1.896.492-2.856a7.9 7.9 0 0 1 1.488-2.604c.664-.776 1.5-1.408 2.508-1.896s2.184-.732 3.528-.732c.528 0 1.012.012 1.452.036.44.024.86.064 1.26.12.4.056.792.128 1.176.216.384.088.784.188 1.2.3.016.432.072.96.168 1.584.096.624.224 1.256.384 1.896a.852.852 0 0 1-.384.096 1.18 1.18 0 0 1-.348-.048c-.104-.032-.172-.12-.204-.264-.288-1.056-.744-1.808-1.368-2.256-.624-.448-1.528-.672-2.712-.672-.992 0-1.868.16-2.628.48-.76.32-1.4.768-1.92 1.344-.52.576-.912 1.268-1.176 2.076-.264.808-.396 1.708-.396 2.7 0 1.104.168 2.12.504 3.048.336.928.788 1.728 1.356 2.4a6.032 6.032 0 0 0 1.992 1.56c.76.368 1.572.552 2.436.552.688 0 1.268-.068 1.74-.204.472-.136.864-.332 1.176-.588.312-.256.576-.572.792-.948.216-.376.42-.804.612-1.284.112-.24.304-.36.576-.36a.958.958 0 0 1 .456.12c-.192.56-.384 1.176-.576 1.848a23.004 23.004 0 0 0-.48 2.016c-.784.128-1.584.228-2.4.3-.816.072-1.712.108-2.688.108zm17.808-.936c.176 0 .272.168.288.504-.416.288-.944.432-1.584.432-.352 0-.656-.052-.912-.156a1.93 1.93 0 0 1-.648-.42 1.901 1.901 0 0 1-.408-.6 2.647 2.647 0 0 1-.192-.696c-.4.72-.876 1.212-1.428 1.476-.552.264-1.188.396-1.908.396-.32 0-.66-.028-1.02-.084-.36-.056-.7-.172-1.02-.348a2.2 2.2 0 0 1-.792-.744c-.208-.32-.312-.744-.312-1.272 0-.592.14-1.092.42-1.5.28-.408.64-.744 1.08-1.008.44-.264.92-.476 1.44-.636.52-.16 1.02-.296 1.5-.408.272-.048.524-.1.756-.156.232-.056.436-.116.612-.18.224-.064.364-.152.42-.264.056-.112.084-.328.084-.648 0-.752-.144-1.372-.432-1.86-.288-.488-.8-.732-1.536-.732-.272 0-.504.032-.696.096a1.142 1.142 0 0 0-.48.3c-.128.136-.24.316-.336.54a8.625 8.625 0 0 0-.288.792.577.577 0 0 1-.324.384c-.168.08-.452.176-.852.288a3.711 3.711 0 0 1-.36.096 1.718 1.718 0 0 1-.36.048c-.16 0-.24-.168-.24-.504 0-.352.136-.704.408-1.056.272-.352.62-.664 1.044-.936a6.268 6.268 0 0 1 1.38-.66 4.415 4.415 0 0 1 1.416-.252c.56 0 1.064.048 1.512.144.448.096.832.272 1.152.528.32.256.564.6.732 1.032.168.432.252.992.252 1.68v4.128c0 .56.02.964.06 1.212.04.248.1.444.18.588.112.224.236.372.372.444a.887.887 0 0 0 .42.108c.176 0 .3-.016.372-.048a.555.555 0 0 1 .228-.048zm-3.624-4.68l-.768.12c-.416.08-.82.176-1.212.288a3.77 3.77 0 0 0-1.044.468c-.304.2-.548.452-.732.756-.184.304-.276.68-.276 1.128 0 .608.156 1.072.468 1.392.312.32.7.48 1.164.48a2.258 2.258 0 0 0 1.668-.78 3.08 3.08 0 0 0 .528-.876c.136-.336.204-.704.204-1.104v-1.872zm10.2 5.448c-.416-.032-.84-.06-1.272-.084a23.36 23.36 0 0 0-2.628 0c-.456.024-.884.052-1.284.084a2.065 2.065 0 0 1-.048-.384c0-.16.072-.256.216-.288.352-.064.68-.156.984-.276.304-.12.456-.308.456-.564V9.696c0-.512-.1-.86-.3-1.044-.2-.184-.58-.3-1.14-.348-.208-.032-.312-.144-.312-.336 0-.096.016-.208.048-.336.208 0 .496-.012.864-.036.368-.024.704-.052 1.008-.084.368-.048.696-.112.984-.192.288-.08.496-.12.624-.12.144 0 .24.032.288.096a.431.431 0 0 1 .072.264c0 .272-.024.588-.072.948-.048.36-.072.78-.072 1.26v12.84c0 .256.148.444.444.564.296.12.628.212.996.276.128.032.192.128.192.288 0 .096-.016.224-.048.384zm4.08-.12c-.272 0-.548.004-.828.012a20.634 20.634 0 0 0-1.404.084 5.077 5.077 0 0 1-.336.024c0-.016-.008-.072-.024-.168a1.444 1.444 0 0 1-.024-.216c0-.16.072-.256.216-.288.416-.08.752-.176 1.008-.288.256-.112.384-.296.384-.552V16.08c0-.48-.084-.824-.252-1.032-.168-.208-.532-.336-1.092-.384-.208-.032-.312-.144-.312-.336 0-.08.016-.184.048-.312.208 0 .5-.012.876-.036.376-.024.684-.052.924-.084.368-.064.696-.132.984-.204.288-.072.496-.108.624-.108.224 0 .336.12.336.36 0 .224-.024.492-.072.804a8.47 8.47 0 0 0-.072 1.236v6.624c0 .256.124.44.372.552.248.112.596.208 1.044.288.128.032.192.128.192.288 0 .048-.004.12-.012.216s-.02.152-.036.168c-.048 0-.156-.008-.324-.024a22.142 22.142 0 0 0-1.392-.084c-.28-.008-.556-.012-.828-.012zM35.312 9.576c0-.384.132-.716.396-.996s.596-.42.996-.42c.384 0 .704.14.96.42.256.28.384.612.384.996 0 .416-.128.752-.384 1.008a1.302 1.302 0 0 1-.96.384c-.4 0-.732-.128-.996-.384s-.396-.592-.396-1.008zm11.88 6.96c-.128 0-.22-.028-.276-.084a.389.389 0 0 1-.108-.18c-.112-.656-.372-1.124-.78-1.404-.408-.28-.916-.42-1.524-.42-.464 0-.876.132-1.236.396s-.54.628-.54 1.092c0 .416.164.764.492 1.044.328.28.924.556 1.788.828.464.144.892.304 1.284.48s.728.388 1.008.636.5.552.66.912c.16.36.24.788.24 1.284 0 .416-.076.816-.228 1.2a2.72 2.72 0 0 1-.696 1.008c-.312.288-.704.52-1.176.696-.472.176-1.036.264-1.692.264-.512 0-1.084-.06-1.716-.18a5.607 5.607 0 0 1-1.716-.612c-.032-.416-.06-.852-.084-1.308a26.253 26.253 0 0 1-.036-1.38h.24c.16 0 .296.028.408.084a.337.337 0 0 1 .192.276c.064.672.324 1.212.78 1.62.456.408 1.092.612 1.908.612.656 0 1.16-.148 1.512-.444.352-.296.528-.7.528-1.212 0-.528-.192-.932-.576-1.212-.384-.28-.952-.532-1.704-.756-.944-.288-1.684-.664-2.22-1.128-.536-.464-.804-1.144-.804-2.04a2.917 2.917 0 0 1 .912-2.136c.288-.272.64-.488 1.056-.648.416-.16.88-.24 1.392-.24.64 0 1.244.084 1.812.252.568.168 1.012.348 1.332.54a12.811 12.811 0 0 1 .084 1.044l.024.6c.008.2.012.38.012.54l-.552-.024zm8.424 6.048a.533.533 0 0 1 .204-.144.515.515 0 0 1 .132-.024c.144 0 .272.104.384.312-.416.464-.864.84-1.344 1.128-.48.288-.992.432-1.536.432-.32 0-.624-.036-.912-.108a1.572 1.572 0 0 1-.744-.42c-.208-.208-.372-.492-.492-.852s-.18-.828-.18-1.404V14.88h-1.44v-.264c0-.112.02-.216.06-.312.04-.096.124-.144.252-.144.432 0 .784-.112 1.056-.336.272-.224.496-.512.672-.864.192-.384.36-.744.504-1.08.144-.336.304-.504.48-.504h.432v2.496h2.808c0 .336-.036.588-.108.756-.072.168-.204.252-.396.252h-2.304v5.952c0 .512.024.924.072 1.236.048.312.12.552.216.72.096.168.208.276.336.324.128.048.272.072.432.072.272 0 .524-.06.756-.18.232-.12.452-.26.66-.42zm11.736.768c.176 0 .272.168.288.504-.416.288-.944.432-1.584.432-.352 0-.656-.052-.912-.156a1.93 1.93 0 0 1-.648-.42 1.901 1.901 0 0 1-.408-.6 2.647 2.647 0 0 1-.192-.696c-.4.72-.876 1.212-1.428 1.476-.552.264-1.188.396-1.908.396-.32 0-.66-.028-1.02-.084-.36-.056-.7-.172-1.02-.348a2.2 2.2 0 0 1-.792-.744c-.208-.32-.312-.744-.312-1.272 0-.592.14-1.092.42-1.5.28-.408.64-.744 1.08-1.008.44-.264.92-.476 1.44-.636.52-.16 1.02-.296 1.5-.408.272-.048.524-.1.756-.156.232-.056.436-.116.612-.18.224-.064.364-.152.42-.264.056-.112.084-.328.084-.648 0-.752-.144-1.372-.432-1.86-.288-.488-.8-.732-1.536-.732-.272 0-.504.032-.696.096a1.142 1.142 0 0 0-.48.3c-.128.136-.24.316-.336.54a8.625 8.625 0 0 0-.288.792.577.577 0 0 1-.324.384c-.168.08-.452.176-.852.288a3.711 3.711 0 0 1-.36.096 1.718 1.718 0 0 1-.36.048c-.16 0-.24-.168-.24-.504 0-.352.136-.704.408-1.056.272-.352.62-.664 1.044-.936a6.268 6.268 0 0 1 1.38-.66 4.415 4.415 0 0 1 1.416-.252c.56 0 1.064.048 1.512.144.448.096.832.272 1.152.528.32.256.564.6.732 1.032.168.432.252.992.252 1.68v4.128c0 .56.02.964.06 1.212.04.248.1.444.18.588.112.224.236.372.372.444a.887.887 0 0 0 .42.108c.176 0 .3-.016.372-.048a.555.555 0 0 1 .228-.048zm-3.624-4.68l-.768.12c-.416.08-.82.176-1.212.288a3.77 3.77 0 0 0-1.044.468c-.304.2-.548.452-.732.756-.184.304-.276.68-.276 1.128 0 .608.156 1.072.468 1.392.312.32.7.48 1.164.48a2.258 2.258 0 0 0 1.668-.78 3.08 3.08 0 0 0 .528-.876c.136-.336.204-.704.204-1.104v-1.872zM77.212 4.886h-3.858l-.442.442v2.344l.442.442h3.858V9.2h-4.263l-1.16-1.16V4.96l1.16-1.16h4.263v1.086zm2.19-2.653v1.254h-.328V2.315l-.134-.13h-.465v1.302h-.33V2.185h-.604v1.302h-.33V1.85h1.828a6.5 6.5 0 1 0 .362.384z"/>
    </g>
</svg>
