<?xml version="1.0" encoding="utf-8"?>
<svg version="1.1" xmlns="http://www.w3.org/2000/svg">
  <style type="text/css">
    @media screen {
      #small {
        display: initial;
      }
      #medium, #large {
        display: none;
      }
    }
    @media screen and (min-width: 24px) {
      #small {
        display: none;
      }
      #medium {
        display: initial;
      }
    }
    @media screen and (min-width: 32px) {
      #medium {
        display: none;
      }
      #large {
        display: initial;
      }
    }
  </style>
  <svg id="small" version="1.1" xmlns="http://www.w3.org/2000/svg" xmlns:xlink="http://www.w3.org/1999/xlink" x="0px" y="0px"
  	 viewBox="0 0 16 16" enable-background="new 0 0 16 16">
  <g>
  	<rect x="3" y="1" fill="#3D4242" width="10" height="1"/>
  	<polygon fill="#3D4242" points="6,15 6,12 3,12 	"/>
  	<polygon fill="#3D4242" points="8.5,15 8.5,14.86 8.05,14.41 8.5,13.96 8.5,12.04 8.05,11.59 8.5,11.14 8.5,10.5 9.14,10.5 
  		10.5,9.14 10.5,8.5 11.14,8.5 11.59,8.05 12.04,8.5 13,8.5 13,3 3,3 3,11 7,11 7,15 	"/>
  </g>
  <path fill="#3D4242" d="M16,12h-0.59l0.41-0.41l-1.41-1.41L14,10.59V10h-2v0.59l-0.41-0.41l-1.41,1.41L10.59,12H10v2h0.59
  	l-0.41,0.41l1.41,1.41L12,15.41V16h2v-0.59l0.41,0.41l1.41-1.41L15.41,14H16V12z M13,14.5c-0.83,0-1.5-0.67-1.5-1.5
  	s0.67-1.5,1.5-1.5c0.83,0,1.5,0.67,1.5,1.5S13.83,14.5,13,14.5z"/>
  </svg>
  
  <svg id="medium" version="1.1" xmlns="http://www.w3.org/2000/svg" xmlns:xlink="http://www.w3.org/1999/xlink" x="0px" y="0px"
  	 viewBox="0 0 24 24" enable-background="new 0 0 24 24">
  <g>
  	<rect x="4" y="1" fill="#3D4242" width="16" height="2"/>
  	<polygon fill="#3D4242" points="9,23 9,18 4,18 	"/>
  	<polygon fill="#3D4242" points="13.81,23 13.7,22.89 12.64,21.83 12.96,21.5 12.5,21.5 12.5,20 12.5,18 12.5,16.5 12.96,16.5 
  		12.64,16.17 13.7,15.11 15.11,13.7 16.17,12.64 16.5,12.96 16.5,12.5 18,12.5 20,12.5 20,4 4,4 4,17 10,17 10,23 	"/>
  </g>
  <path fill="#3D4242" d="M24,20v-2h-1.66c-0.07-0.23-0.16-0.45-0.27-0.65l1.17-1.17l-1.41-1.41l-1.17,1.17
  	c-0.21-0.11-0.42-0.2-0.65-0.27V14h-2v1.66c-0.23,0.07-0.45,0.16-0.65,0.27l-1.17-1.17l-1.41,1.41l1.17,1.17
  	c-0.11,0.21-0.2,0.42-0.27,0.65H14v2h1.66c0.07,0.23,0.16,0.45,0.27,0.65l-1.17,1.17l1.41,1.41l1.17-1.17
  	c0.21,0.11,0.42,0.2,0.65,0.27V24h2v-1.66c0.23-0.07,0.45-0.16,0.65-0.27l1.17,1.17l1.41-1.41l-1.17-1.17
  	c0.11-0.21,0.2-0.42,0.27-0.65H24z M19,20.5c-0.83,0-1.5-0.67-1.5-1.5s0.67-1.5,1.5-1.5c0.83,0,1.5,0.67,1.5,1.5S19.83,20.5,19,20.5
  	z"/>
  </svg>
  
  <svg id="large" version="1.1" xmlns="http://www.w3.org/2000/svg" xmlns:xlink="http://www.w3.org/1999/xlink" x="0px" y="0px"
  	 viewBox="0 0 32 32" enable-background="new 0 0 32 32">
  <g>
  	<rect x="5" y="1" fill="#3D4242" width="22" height="2"/>
  	<polygon fill="#3D4242" points="5,24 12,31 12,24 	"/>
  	<g>
  		<polygon fill="#3D4242" points="18.28,30.3 17.22,29.24 18.28,28.18 18.96,27.5 18,27.5 16.5,27.5 16.5,26 16.5,24 16.5,22.5 
  			18,22.5 18.96,22.5 18.28,21.82 17.22,20.76 18.28,19.7 19.7,18.28 20.76,17.22 21.82,18.28 22.5,18.96 22.5,18 22.5,16.5 
  			24,16.5 26,16.5 27,16.5 27,5 5,5 5,22 14,22 14,24 14,31 18,31 18.98,31 		"/>
  	</g>
  </g>
  <path fill="#3D4242" d="M32,26v-2h-2.1c-0.13-0.64-0.38-1.23-0.73-1.75l1.49-1.49l-1.41-1.41l-1.49,1.49
  	c-0.52-0.35-1.12-0.6-1.75-0.73V18h-2v2.1c-0.64,0.13-1.23,0.38-1.75,0.73l-1.49-1.49l-1.42,1.41l1.49,1.49
  	c-0.35,0.52-0.6,1.12-0.73,1.75H18v2h2.1c0.13,0.64,0.38,1.23,0.73,1.75l-1.49,1.49l1.42,1.41l1.49-1.49
  	c0.52,0.35,1.12,0.6,1.75,0.73V32h2v-2.1c0.64-0.13,1.23-0.38,1.75-0.73l1.49,1.49l1.41-1.41l-1.49-1.49
  	c0.35-0.52,0.6-1.12,0.73-1.75H32z M25,27c-1.1,0-2-0.9-2-2s0.9-2,2-2c1.1,0,2,0.9,2,2S26.1,27,25,27z"/>
  </svg>
  
</svg>
