<?xml version="1.0" encoding="utf-8"?>
<svg version="1.1" xmlns="http://www.w3.org/2000/svg">
  <style type="text/css">
    @media screen {
      #small {
        display: initial;
      }
      #medium, #large {
        display: none;
      }
    }
    @media screen and (min-width: 24px) {
      #small {
        display: none;
      }
      #medium {
        display: initial;
      }
    }
    @media screen and (min-width: 32px) {
      #medium {
        display: none;
      }
      #large {
        display: initial;
      }
    }
  </style>
  <svg id="small" version="1.1" xmlns="http://www.w3.org/2000/svg" xmlns:xlink="http://www.w3.org/1999/xlink" x="0px" y="0px"
  	 viewBox="0 0 16 16" enable-background="new 0 0 16 16">
  <g>
  	<ellipse fill="#3D4242" cx="8" cy="5" rx="3.5" ry="4"/>
  	<g>
  		<path fill="#3D4242" d="M8.5,14.86l-0.45-0.45l0.45-0.45v-1.93l-0.45-0.45l0.45-0.45V10.5L8,11L6.35,9.35L6.34,9.34
  			C4.4,10.16,3,12.38,3,15h2h0.05h0.48H8.5V14.86z"/>
  	</g>
  </g>
  <path fill="#3D4242" d="M16,12h-0.59l0.41-0.41l-1.41-1.41L14,10.59V10h-2v0.59l-0.41-0.41l-1.41,1.41L10.59,12H10v2h0.59
  	l-0.41,0.41l1.41,1.41L12,15.41V16h2v-0.59l0.41,0.41l1.41-1.41L15.41,14H16V12z M13,14.5c-0.83,0-1.5-0.67-1.5-1.5
  	s0.67-1.5,1.5-1.5c0.83,0,1.5,0.67,1.5,1.5S13.83,14.5,13,14.5z"/>
  </svg>
  
  <svg id="medium" version="1.1" xmlns="http://www.w3.org/2000/svg" xmlns:xlink="http://www.w3.org/1999/xlink" x="0px" y="0px"
  	 viewBox="0 0 24 24" enable-background="new 0 0 24 24">
  <g>
  	<ellipse fill="#3D4242" cx="12" cy="7.29" rx="5.5" ry="6.29"/>
  	<path fill="#3D4242" d="M12.64,21.83l0.33-0.33H12.5V20v-2v-1.5h0.46l-0.33-0.33l-0.04-0.04L12,16.71l-2.65-2.6
  		c-0.29,0.12-0.57,0.27-0.84,0.43c0,0,0,0,0,0c-2.09,1.2-3.66,3.43-4.24,6.13c-0.04,0.16-0.07,0.31-0.1,0.47
  		c-0.03,0.19-0.06,0.38-0.09,0.58C4.04,22.15,4,22.57,4,23h4h0.64H9.5h4.31l-0.11-0.11L12.64,21.83z"/>
  </g>
  <path fill="#3D4242" d="M24,20v-2h-1.66c-0.07-0.23-0.16-0.45-0.27-0.65l1.17-1.17l-1.41-1.41l-1.17,1.17
  	c-0.21-0.11-0.42-0.2-0.65-0.27V14h-2v1.66c-0.23,0.07-0.45,0.16-0.65,0.27l-1.17-1.17l-1.41,1.41l1.17,1.17
  	c-0.11,0.21-0.2,0.42-0.27,0.65H14v2h1.66c0.07,0.23,0.16,0.45,0.27,0.65l-1.17,1.17l1.41,1.41l1.17-1.17
  	c0.21,0.11,0.42,0.2,0.65,0.27V24h2v-1.66c0.23-0.07,0.45-0.16,0.65-0.27l1.17,1.17l1.41-1.41l-1.17-1.17
  	c0.11-0.21,0.2-0.42,0.27-0.65H24z M19,20.5c-0.83,0-1.5-0.67-1.5-1.5s0.67-1.5,1.5-1.5c0.83,0,1.5,0.67,1.5,1.5S19.83,20.5,19,20.5
  	z"/>
  </svg>
  
  <svg id="large" version="1.1" xmlns="http://www.w3.org/2000/svg" xmlns:xlink="http://www.w3.org/1999/xlink" x="0px" y="0px"
  	 viewBox="0 0 32 32" enable-background="new 0 0 32 32">
  <g>
  	<ellipse fill="#3D4242" cx="16" cy="9.57" rx="7.5" ry="8.57"/>
  	<g>
  		<path fill="#3D4242" d="M18.28,30.3l-1.06-1.06l1.06-1.06l0.68-0.68H18h-1.5V26v-2v-1.5H18h0.96l-0.68-0.68L17.46,21L16,22.43
  			l-3.64-3.55c-3.38,1.39-6,4.64-6.95,8.7c-0.01,0.02-0.01,0.05-0.02,0.07c-0.12,0.5-0.21,1.01-0.27,1.54
  			c-0.01,0.07-0.02,0.15-0.02,0.22C5.04,29.93,5,30.46,5,31h5h2.54h0.6h5.73h0.12L18.28,30.3z"/>
  	</g>
  </g>
  <path fill="#3D4242" d="M32,26v-2h-2.1c-0.13-0.64-0.38-1.23-0.73-1.75l1.49-1.49l-1.41-1.41l-1.49,1.49
  	c-0.52-0.35-1.12-0.6-1.75-0.73V18h-2v2.1c-0.64,0.13-1.23,0.38-1.75,0.73l-1.49-1.49l-1.42,1.41l1.49,1.49
  	c-0.35,0.52-0.6,1.12-0.73,1.75H18v2h2.1c0.13,0.64,0.38,1.23,0.73,1.75l-1.49,1.49l1.42,1.41l1.49-1.49
  	c0.52,0.35,1.12,0.6,1.75,0.73V32h2v-2.1c0.64-0.13,1.23-0.38,1.75-0.73l1.49,1.49l1.41-1.41l-1.49-1.49
  	c0.35-0.52,0.6-1.12,0.73-1.75H32z M25,27c-1.1,0-2-0.9-2-2s0.9-2,2-2c1.1,0,2,0.9,2,2S26.1,27,25,27z"/>
  </svg>
  
</svg>
