<?xml version="1.0" encoding="utf-8"?>
<svg version="1.1" xmlns="http://www.w3.org/2000/svg">
  <style type="text/css">
    @media screen {
      #small {
        display: initial;
      }
      #medium, #large {
        display: none;
      }
    }
    @media screen and (min-width: 24px) {
      #small {
        display: none;
      }
      #medium {
        display: initial;
      }
    }
    @media screen and (min-width: 32px) {
      #medium {
        display: none;
      }
      #large {
        display: initial;
      }
    }
  </style>
  <svg id="small" version="1.1" xmlns="http://www.w3.org/2000/svg" xmlns:xlink="http://www.w3.org/1999/xlink" x="0px" y="0px"
  	 viewBox="0 0 16 16" enable-background="new 0 0 16 16">
  <g>
  	<ellipse fill="#3D4242" cx="5" cy="5.5" rx="3" ry="3.5"/>
  	<path fill="#3D4242" d="M10.5,8.94V8.5h0.64l0.45-0.45l0.45,0.45h0.49C13.4,7.89,14,6.78,14,5.5C14,3.57,12.66,2,11,2
  		c-0.83,0-1.57,0.39-2.12,1.02C9.26,3.75,9.5,4.59,9.5,5.5c0,0.91-0.23,1.75-0.62,2.48C9.31,8.48,9.87,8.82,10.5,8.94z"/>
  	<path fill="#3D4242" d="M8.5,13.96v-1.93l-0.45-0.45l0.3-0.3c-0.43-0.82-1.04-1.48-1.77-1.87L5,11L3.41,9.41
  		C1.99,10.18,1,11.94,1,14h7.46L8.5,13.96z"/>
  </g>
  <path fill="#3D4242" d="M16,12h-0.59l0.41-0.41l-1.41-1.41L14,10.59V10h-2v0.59l-0.41-0.41l-1.41,1.41L10.59,12H10v2h0.59
  	l-0.41,0.41l1.41,1.41L12,15.41V16h2v-0.59l0.41,0.41l1.41-1.41L15.41,14H16V12z M13,14.5c-0.83,0-1.5-0.67-1.5-1.5
  	s0.67-1.5,1.5-1.5c0.83,0,1.5,0.67,1.5,1.5S13.83,14.5,13,14.5z"/>
  </svg>
  
  <svg id="medium" version="1.1" xmlns="http://www.w3.org/2000/svg" xmlns:xlink="http://www.w3.org/1999/xlink" x="0px" y="0px"
  	 viewBox="0 0 24 24" enable-background="new 0 0 24 24">
  <g>
  	<ellipse fill="#3D4242" cx="7.5" cy="8" rx="5" ry="6"/>
  	<path fill="#3D4242" d="M15.07,13.74l0.05-0.05l1.06-1.06l0.33,0.33V12.5H18h1.8c1.04-1.1,1.7-2.71,1.7-4.5c0-3.31-2.24-6-5-6
  		c-1.41,0-2.69,0.71-3.6,1.84C13.59,5.03,14,6.46,14,8s-0.41,2.96-1.1,4.16C13.49,12.89,14.23,13.44,15.07,13.74z"/>
  	<path fill="#3D4242" d="M12.64,21.83l0.33-0.33H12.5V20v-2v-1.08c-0.69-1.02-1.56-1.84-2.58-2.35L7.5,17l-2.42-2.42
  		C2.69,15.76,1,18.64,1,22h11.81L12.64,21.83z"/>
  </g>
  <path fill="#3D4242" d="M24,20v-2h-1.66c-0.07-0.23-0.16-0.45-0.27-0.65l1.17-1.17l-1.41-1.41l-1.17,1.17
  	c-0.21-0.11-0.42-0.2-0.65-0.27V14h-2v1.66c-0.23,0.07-0.45,0.16-0.65,0.27l-1.17-1.17l-1.41,1.41l1.17,1.17
  	c-0.11,0.21-0.2,0.42-0.27,0.65H14v2h1.66c0.07,0.23,0.16,0.45,0.27,0.65l-1.17,1.17l1.41,1.41l1.17-1.17
  	c0.21,0.11,0.42,0.2,0.65,0.27V24h2v-1.66c0.23-0.07,0.45-0.16,0.65-0.27l1.17,1.17l1.41-1.41l-1.17-1.17
  	c0.11-0.21,0.2-0.42,0.27-0.65H24z M19,20.5c-0.83,0-1.5-0.67-1.5-1.5s0.67-1.5,1.5-1.5c0.83,0,1.5,0.67,1.5,1.5S19.83,20.5,19,20.5
  	z"/>
  </svg>
  
  <svg id="large" version="1.1" xmlns="http://www.w3.org/2000/svg" xmlns:xlink="http://www.w3.org/1999/xlink" x="0px" y="0px"
  	 viewBox="0 0 32 32" enable-background="new 0 0 32 32">
  <g>
  	<ellipse fill="#3D4242" cx="9" cy="11" rx="6" ry="7"/>
  	<path fill="#3D4242" d="M20.58,17.4l0.18-0.18l0.47,0.47c0.41,0.15,0.83,0.24,1.27,0.28V16.5H24h2h0.71C28.1,15.22,29,13.23,29,11
  		c0-3.87-2.69-7-6-7c-3.32,0-6,3.13-6,7C17,13.86,18.47,16.32,20.58,17.4z"/>
  	<path fill="#3D4242" d="M16.5,27.5V26v-1.43c-0.76-2.58-2.32-4.66-4.32-5.75L9,22l-3.17-3.17C2.99,20.36,1,23.89,1,28h16
  		c0-0.17-0.02-0.33-0.03-0.5H16.5z"/>
  </g>
  <path fill="#3D4242" d="M32,26v-2h-2.1c-0.13-0.64-0.38-1.23-0.73-1.75l1.49-1.49l-1.41-1.41l-1.49,1.49
  	c-0.52-0.35-1.12-0.6-1.75-0.73V18h-2v2.1c-0.64,0.13-1.23,0.38-1.75,0.73l-1.49-1.49l-1.42,1.41l1.49,1.49
  	c-0.35,0.52-0.6,1.12-0.73,1.75H18v2h2.1c0.13,0.64,0.38,1.23,0.73,1.75l-1.49,1.49l1.42,1.41l1.49-1.49
  	c0.52,0.35,1.12,0.6,1.75,0.73V32h2v-2.1c0.64-0.13,1.23-0.38,1.75-0.73l1.49,1.49l1.41-1.41l-1.49-1.49
  	c0.35-0.52,0.6-1.12,0.73-1.75H32z M25,27c-1.1,0-2-0.9-2-2s0.9-2,2-2c1.1,0,2,0.9,2,2S26.1,27,25,27z"/>
  </svg>
  
</svg>
