<svg xmlns="http://www.w3.org/2000/svg" viewBox="0 0 590 500">
    <path fill="#FFFFFF" d="M 74.710938 4.9960938 C 39.313957 4.9960937 9.7027611 5.2573613 8.9082031 5.5761719 C 7.7487466 6.0413956 7.5239231 11.523332 7.7714844 33.345703 L 8.0800781 60.535156 L 11.820312 62.957031 C 15.46473 65.316357 16.553729 65.374025 54.636719 65.259766 L 93.714844 65.142578 L 94.746094 67.736328 C 95.644745 69.997282 162.63446 406.19388 163.08594 410.69336 A 48.81356 48.81356 0 0 0 137.76367 453.42383 A 48.81356 48.81356 0 0 0 186.57617 502.23633 A 48.81356 48.81356 0 0 0 235.39062 453.42383 A 48.81356 48.81356 0 0 0 211.49805 411.51758 C 242.25157 411.67631 284.98023 411.77539 332.20508 411.77539 L 460.32812 411.77539 A 48.81356 48.81356 0 0 0 430.64453 456.67773 A 48.81356 48.81356 0 0 0 479.45703 505.49219 A 48.81356 48.81356 0 0 0 528.27148 456.67773 A 48.81356 48.81356 0 0 0 498.47266 411.77539 L 501.28711 411.77539 L 504.79492 397.88477 C 508.27586 384.10427 508.28907 383.96446 506.32617 380.14648 C 505.23794 378.02981 502.63189 375.0764 500.53516 373.58398 L 496.72266 370.87109 L 351.70312 370.87109 L 206.68164 370.87109 L 205.57031 367.17773 C 203.65892 360.83014 196.75195 332.73517 196.75195 331.30859 C 196.75195 330.2604 233.44622 330.01718 357.65234 330.24219 C 517.27968 330.53136 518.57212 330.51624 520.77734 328.26172 C 522.62654 326.37119 527.01917 305.07553 546.91602 201.56836 L 570.83398 77.148438 L 568.4707 74.441406 C 567.171 72.952849 564.15402 70.792387 561.76758 69.638672 C 557.5995 67.623634 549.56068 67.539605 357.68164 67.515625 L 157.93555 67.490234 L 157.20312 64.365234 C 156.79994 62.646647 152.55472 48.586426 147.76953 33.119141 L 139.06836 4.9960938 L 74.710938 4.9960938 z " />
</svg>
