<svg width="115" height="18" version="1" xmlns="http://www.w3.org/2000/svg" xmlns:xlink="http://www.w3.org/1999/xlink"><defs><path d="M12.3367316,7.01359562 L7.58985773,7.01359562 L7.04585301,7.55759955 L7.04585301,10.4425886 L7.58985773,10.9862163 L12.3367316,10.9862163 L12.3367316,12.3229009 L7.09193916,12.3229009 L5.66326838,10.8942322 L5.66326838,7.10576779 L7.09193916,5.67728722 L12.3367316,5.67728722 L12.3367316,7.01359562 Z M15.0309846,5.29260947 L14.6286243,5.29260947 L14.6286243,3.85020902 L14.4638428,3.69088283 L13.8906815,3.69088283 L13.8906815,5.29260947 L13.4853115,5.29260947 L13.4853115,3.69088283 L12.7419136,3.69088283 L12.7419136,5.29260947 L12.3367316,5.29260947 L12.3367316,3.27723669 L14.5851716,3.27723669 C13.1435215,1.87001215 11.1736676,1.00171266 9.00009405,1.00171266 C4.58259509,1.00171266 1.00179495,4.58269563 1.00179495,9 C1.00179495,13.4173044 4.58259509,16.9982873 9.00009405,16.9982873 C13.4174049,16.9982873 16.998205,13.4173044 16.998205,9 C16.998205,6.99008231 16.2551834,5.15491553 15.0309846,3.74976016 L15.0309846,5.29260947 Z" id="a"/></defs><g fill="none" fill-rule="evenodd"><path d="M36.8721845,9.66699851 L36.8721845,8.26231956 L38.5394844,8.26231956 L38.5394844,12.3494276 L36.8374491,12.3494276 C36.4090435,11.5314378 35.821442,10.8939794 35.0746269,10.4370333 C34.3278117,9.98008731 33.5086431,9.75161772 32.6170963,9.75161772 C31.7544959,9.75161772 30.9845353,9.97303578 30.3071913,10.4158785 C29.6298474,10.8587213 29.1015849,11.4510499 28.7223881,12.192882 C28.3431912,12.9347142 28.1535957,13.7315371 28.1535957,14.5833748 C28.1535957,15.463419 28.351875,16.2757554 28.7484396,17.0204082 C29.1450042,17.765061 29.6906342,18.3602101 30.385346,18.8058736 C31.0800577,19.251537 31.852913,19.4743654 32.7039349,19.4743654 C33.7517918,19.4743654 34.6780602,19.1626877 35.482768,18.539323 C36.2874758,17.9159584 36.8750773,17.0316965 37.2455902,15.8865107 L38.9128901,16.7496267 C38.4613275,18.1712366 37.6638682,19.2726857 36.5204885,20.054007 C35.3771087,20.8353283 34.0354668,21.2259831 32.4955224,21.2259831 C31.2276734,21.2259831 30.1016784,20.9312291 29.1175034,20.3417123 C28.1333284,19.7521955 27.3677097,18.9596035 26.8206242,17.9639124 C26.2735386,16.9682213 26,15.8752341 26,14.6849179 C26,13.3930581 26.2793278,12.2422483 26.8379919,11.232454 C27.3966559,10.2226596 28.1680638,9.43993973 29.1522388,8.88427078 C30.1364138,8.32860183 31.2624089,8.05077153 32.5302578,8.05077153 C33.3812797,8.05077153 34.1657133,8.18898153 34.8835821,8.46540567 C35.6014509,8.74182982 36.2643118,9.14235676 36.8721845,9.66699851 Z M46.5286296,11.8840219 C48.2248841,11.8840219 49.0729986,12.778156 49.0729986,14.566451 L49.0729986,19.4574415 L50.6187246,19.4574415 L50.6187246,21.014435 L47.275441,21.014435 L47.275441,15.1926332 C47.275441,14.5551652 47.1813668,14.1066879 46.9932157,13.8471877 C46.8050646,13.5876874 46.5141585,13.4579393 46.1204885,13.4579393 C45.454723,13.4579393 44.589241,13.8387219 43.5240163,14.6002987 L43.5240163,19.4574415 L45.1044776,19.4574415 L45.1044776,21.014435 L40.0938942,21.014435 L40.0938942,19.4574415 L41.7264586,19.4574415 L41.7264586,9.80238925 L40.0938942,9.80238925 L40.0938942,8.26231956 L43.5240163,8.26231956 L43.5240163,13.161772 C44.6008195,12.3099344 45.6023472,11.8840219 46.5286296,11.8840219 Z M61.256445,17.0119462 L53.6059701,17.0119462 C53.7159662,17.8637839 54.0546331,18.5364999 54.621981,19.0301145 C55.1893289,19.523729 55.8840303,19.7705326 56.7061058,19.7705326 C57.3081894,19.7705326 57.866845,19.6492463 58.3820896,19.40667 C58.8973341,19.1640937 59.3286278,18.7917729 59.6759837,18.2896964 L61.256445,18.9835739 C60.7585683,19.7395093 60.1058385,20.3106833 59.2982361,20.697113 C58.4906337,21.0835427 57.612126,21.2767546 56.6626866,21.2767546 C55.6785116,21.2767546 54.8043457,21.0764911 54.0401628,20.6759582 C53.2759799,20.2754252 52.6811419,19.716944 52.2556309,19.0004978 C51.83012,18.2840515 51.6173677,17.4773564 51.6173677,16.5803883 C51.6173677,15.6890614 51.8272254,14.8851869 52.2469471,14.1687407 C52.6666688,13.4522944 53.2412447,12.8924029 53.970692,12.4890493 C54.7001393,12.0856957 55.504835,11.8840219 56.3848033,11.8840219 C57.3458212,11.8840219 58.1838047,12.0913369 58.8987788,12.5059731 C59.613753,12.9206093 60.1767505,13.5129379 60.5877883,14.2829766 C60.9988261,15.0530153 61.2217095,15.9626627 61.256445,17.0119462 Z M56.4195387,13.3394724 C55.7421947,13.3394724 55.148804,13.5608904 54.6393487,14.0037332 C54.1298934,14.446576 53.8028049,15.031853 53.6580733,15.7595819 L59.3720488,15.7595819 C59.2041602,15.031853 58.8481257,14.446576 58.3039349,14.0037332 C57.759744,13.5608904 57.1316182,13.3394724 56.4195387,13.3394724 Z M68.5682497,10.047785 L66.9704206,10.2847188 C66.9183172,9.70930524 66.6925393,9.42160279 66.2930801,9.42160279 C66.0094061,9.42160279 65.8198105,9.52032422 65.7242877,9.71777003 C65.6287648,9.91521585 65.5810041,10.2677924 65.5810041,10.7755102 L65.5810041,12.1209557 L67.1440977,12.1209557 L67.1440977,13.6864111 L65.5810041,13.6864111 L65.5810041,19.4574415 L67.3004071,19.4574415 L67.3004071,21.014435 L62.446133,21.014435 L62.446133,19.4574415 L63.7834464,19.4574415 L63.7834464,13.6864111 L62.446133,13.6864111 L62.446133,12.1209557 L63.7834464,12.1209557 L63.7834464,10.7416625 C63.7834464,9.92931401 63.9875149,9.26929074 64.3956581,8.76157292 C64.8038012,8.2538551 65.407323,8 66.2062415,8 C66.8662177,8 67.3973747,8.17064704 67.7997286,8.51194624 C68.2020825,8.85324544 68.4582536,9.36518657 68.5682497,10.047785 Z M84.1297151,9.66699851 L84.1297151,8.26231956 L85.7970149,8.26231956 L85.7970149,12.3494276 L84.0949796,12.3494276 C83.6665741,11.5314378 83.0789725,10.8939794 82.3321574,10.4370333 C81.5853423,9.98008731 80.7661736,9.75161772 79.8746269,9.75161772 C79.0120264,9.75161772 78.2420658,9.97303578 77.5647218,10.4158785 C76.8873779,10.8587213 76.3591154,11.4510499 75.9799186,12.192882 C75.6007218,12.9347142 75.4111262,13.7315371 75.4111262,14.5833748 C75.4111262,15.463419 75.6094055,16.2757554 76.0059701,17.0204082 C76.4025348,17.765061 76.9481648,18.3602101 77.6428765,18.8058736 C78.3375883,19.251537 79.1104435,19.4743654 79.9614654,19.4743654 C81.0093223,19.4743654 81.9355907,19.1626877 82.7402985,18.539323 C83.5450063,17.9159584 84.1326078,17.0316965 84.5031208,15.8865107 L86.1704206,16.7496267 C85.718858,18.1712366 84.9213988,19.2726857 83.778019,20.054007 C82.6346392,20.8353283 81.2929973,21.2259831 79.7530529,21.2259831 C78.485204,21.2259831 77.3592089,20.9312291 76.3750339,20.3417123 C75.3908589,19.7521955 74.6252402,18.9596035 74.0781547,17.9639124 C73.5310692,16.9682213 73.2575305,15.8752341 73.2575305,14.6849179 C73.2575305,13.3930581 73.5368584,12.2422483 74.0955224,11.232454 C74.6541864,10.2226596 75.4255944,9.43993973 76.4097693,8.88427078 C77.3939443,8.32860183 78.5199394,8.05077153 79.7877883,8.05077153 C80.6388102,8.05077153 81.4232438,8.18898153 82.1411126,8.46540567 C82.8589814,8.74182982 83.5218423,9.14235676 84.1297151,9.66699851 Z M97.2944369,16.5803883 C97.2944369,17.4435085 97.0831319,18.23328 96.6605156,18.9497262 C96.2378993,19.6661725 95.6618761,20.2331156 94.9324288,20.6505724 C94.2029814,21.0680293 93.3953911,21.2767546 92.5096336,21.2767546 C91.5949298,21.2767546 90.769972,21.0680293 90.0347354,20.6505724 C89.2994988,20.2331156 88.7278175,19.6661725 88.3196744,18.9497262 C87.9115312,18.23328 87.7074627,17.4435085 87.7074627,16.5803883 C87.7074627,15.6777788 87.9115312,14.8710837 88.3196744,14.1602787 C88.7278175,13.4494738 89.2966042,12.8924029 90.0260516,12.4890493 C90.7554989,12.0856957 91.5833513,11.8840219 92.5096336,11.8840219 C93.4069697,11.8840219 94.2203491,12.0969781 94.9497965,12.522897 C95.6792438,12.9488158 96.2523724,13.5199898 96.6691995,14.236436 C97.0860265,14.9528823 97.2944369,15.7341919 97.2944369,16.5803883 Z M92.5096336,19.5759084 C93.042246,19.5759084 93.5314315,19.440519 93.9772049,19.1697362 C94.4229783,18.8989533 94.7703289,18.5350944 95.0192673,18.0781483 C95.2682057,17.6212023 95.392673,17.1219539 95.392673,16.5803883 C95.392673,16.0501052 95.2682057,15.5564981 95.0192673,15.099552 C94.7703289,14.642606 94.4229783,14.2745161 93.9772049,13.9952713 C93.5314315,13.7160265 93.0364568,13.5764062 92.4922659,13.5764062 C91.9596536,13.5764062 91.4704681,13.7132059 91.0246947,13.9868094 C90.5789213,14.2604128 90.2286761,14.6285027 89.9739484,15.0910901 C89.7192208,15.5536774 89.5918589,16.0501052 89.5918589,16.5803883 C89.5918589,17.1106713 89.7192208,17.6070991 89.9739484,18.0696864 C90.2286761,18.5322738 90.5818159,18.8989533 91.0333786,19.1697362 C91.4849412,19.440519 91.9770213,19.5759084 92.5096336,19.5759084 Z M101.975034,17.4435042 L101.975034,19.4574415 L103.963636,19.4574415 L103.963636,21.014435 L98.3625509,21.014435 L98.3625509,19.4574415 L100.194844,19.4574415 L100.194844,13.6864111 L98.3625509,13.6864111 L98.3625509,12.1209557 L101.618996,12.1209557 L101.618996,14.134893 C101.98372,13.3394684 102.436723,12.7852181 102.978019,12.4721254 C103.519315,12.1590328 104.293618,12.0024888 105.30095,12.0024888 L105.709091,12.0024888 L105.709091,13.7710304 L105.318318,13.7710304 C104.345721,13.7710304 103.622074,13.8951373 103.147354,14.1433549 C102.672634,14.3915725 102.358572,14.7667139 102.205156,15.2687904 C102.051741,15.770867 101.975034,16.4957643 101.975034,17.4435042 Z M117.362822,16.6142359 C117.362822,17.4435084 117.16599,18.2191767 116.77232,18.9412643 C116.37865,19.6633519 115.841704,20.2331156 115.161465,20.6505724 C114.481227,21.0680293 113.727186,21.2767546 112.899322,21.2767546 C111.677787,21.2767546 110.609683,20.8198154 109.69498,19.9059233 L109.69498,23.4430065 L111.47517,23.4430065 L111.47517,25 L106.24749,25 L106.24749,23.4430065 L107.897422,23.4430065 L107.897422,13.6864111 L106.369064,13.6864111 L106.369064,12.1209557 L109.69498,12.1209557 L109.69498,13.5425585 C110.146542,13.023558 110.644412,12.6371342 111.188602,12.3832753 C111.732793,12.1294164 112.314606,12.0024888 112.934057,12.0024888 C113.796657,12.0024888 114.563723,12.2098038 115.235278,12.62444 C115.906833,13.0390762 116.429306,13.5989678 116.802714,14.3041314 C117.176121,15.009295 117.362822,15.7793222 117.362822,16.6142359 Z M112.87327,19.6774515 C113.371147,19.6774515 113.819808,19.5364209 114.219267,19.2543554 C114.618727,18.9722899 114.931342,18.5886867 115.157123,18.1035341 C115.382905,17.6183815 115.495794,17.1050301 115.495794,16.5634644 C115.495794,16.0162574 115.371326,15.5127781 115.122388,15.0530114 C114.87345,14.5932448 114.531888,14.2265652 114.097693,13.9529617 C113.663499,13.6793582 113.174313,13.5425585 112.630122,13.5425585 C112.062774,13.5425585 111.553327,13.68782 111.101764,13.9783474 C110.650201,14.2688749 110.299956,14.6538884 110.051018,15.1333997 C109.802079,15.612911 109.677612,16.1403655 109.677612,16.715779 C109.677612,17.6409537 109.977202,18.365851 110.576391,18.8904928 C111.17558,19.4151345 111.941198,19.6774515 112.87327,19.6774515 Z M118.681411,21.014435 L118.681411,18.763564 L121,18.763564 L121,21.014435 L118.681411,21.014435 Z" fill="#000" transform="translate(-6 -7)"/><use fill="#000" xlink:href="#a" transform="translate(-1 -1)"/></g></svg>
