<?xml version="1.0" encoding="utf-8"?>
<svg version="1.1" xmlns="http://www.w3.org/2000/svg">
  <style type="text/css">
    @media screen {
      #small {
        display: initial;
      }
      #medium, #large {
        display: none;
      }
    }
    @media screen and (min-width: 24px) {
      #small {
        display: none;
      }
      #medium {
        display: initial;
      }
    }
    @media screen and (min-width: 32px) {
      #medium {
        display: none;
      }
      #large {
        display: initial;
      }
    }
  </style>
  <svg id="small" version="1.1" xmlns="http://www.w3.org/2000/svg" xmlns:xlink="http://www.w3.org/1999/xlink" x="0px" y="0px"
  	 viewBox="0 0 16 16" style="enable-background:new 0 0 16 16;">
  <style type="text/css">
  	.st0{fill:#3D4242;}
  </style>
  <g>
  	<rect x="3" y="1" class="st0" width="10" height="1"/>
  	<path class="st0" d="M10,6c0,0-1,3-2,3S6,6,6,6H5c0,0,1,4,3,4s3-4,3-4H10z"/>
  	<path class="st0" d="M3,3v12h6h4V9V3H3z M12,13H9H4V5h8v4V13z"/>
  </g>
  </svg>
  
  <svg id="medium" version="1.1" xmlns="http://www.w3.org/2000/svg" xmlns:xlink="http://www.w3.org/1999/xlink" x="0px" y="0px"
  	 viewBox="0 0 24 24" style="enable-background:new 0 0 24 24;">
  <style type="text/css">
  	.st0{fill:#3D4242;}
  </style>
  <g>
  	<rect x="4" y="1" class="st0" width="16" height="2"/>
  	<path class="st0" d="M12,14c-2.5,0-3.5-5-3.5-5H7c0,0,1.5,6.5,5,6.5S17,9,17,9h-1.5C15.5,9,14.5,14,12,14z"/>
  	<path class="st0" d="M4,4v19h9h7V13V4H4z M18,20h-5H6V8h12v5V20z"/>
  </g>
  </svg>
  
  <svg id="large" version="1.1" xmlns="http://www.w3.org/2000/svg" xmlns:xlink="http://www.w3.org/1999/xlink" x="0px" y="0px"
  	 viewBox="0 0 32 32" style="enable-background:new 0 0 32 32;">
  <style type="text/css">
  	.st0{fill:#3D4242;}
  </style>
  <g>
  	<rect x="5" y="1" class="st0" width="22" height="2"/>
  	<path class="st0" d="M16,18c-3.63,0-5-7-5-7H9c0,0,2,9,7,9s7-9,7-9h-2C21,11,19.63,18,16,18z"/>
  	<path class="st0" d="M5,5v26h13h9V18V5H5z M25,26h-7H7V9h18v9V26z"/>
  </g>
  </svg>
  
</svg>
