<?xml version="1.0" encoding="utf-8"?>
<svg version="1.1" xmlns="http://www.w3.org/2000/svg">
  <style type="text/css">
    @media screen {
      #small {
        display: initial;
      }
      #medium, #large {
        display: none;
      }
    }
    @media screen and (min-width: 24px) {
      #small {
        display: none;
      }
      #medium {
        display: initial;
      }
    }
    @media screen and (min-width: 32px) {
      #medium {
        display: none;
      }
      #large {
        display: initial;
      }
    }
  </style>
  <svg id="small" version="1.1" xmlns="http://www.w3.org/2000/svg" xmlns:xlink="http://www.w3.org/1999/xlink" x="0px" y="0px"
  	 viewBox="0 0 16 16" enable-background="new 0 0 16 16">
  <path fill="#3D4242" d="M1,1v14h14V1H1z M7,14H3v-1h4V14z M7,12H3v-1h4V12z M13,14H9v-1h4V14z M13,12H9v-1h4V12z M13,10H3V6h10V10z
  	 M14,4H2V2h12V4z"/>
  </svg>
  
  <svg id="medium" version="1.1" xmlns="http://www.w3.org/2000/svg" xmlns:xlink="http://www.w3.org/1999/xlink" x="0px" y="0px"
  	 viewBox="0 0 24 24" enable-background="new 0 0 24 24">
  <path fill="#3D4242" d="M1,1v22h22V1H1z M11,21H4v-1h7V21z M11,18H4v-1h7V18z M20,21h-7v-1h7V21z M20,18h-7v-1h7V18z M20,15H4V9h16
  	V15z M22,6H2V2h20V6z"/>
  </svg>
  
  <svg id="large" version="1.1" xmlns="http://www.w3.org/2000/svg" xmlns:xlink="http://www.w3.org/1999/xlink" x="0px" y="0px"
  	 viewBox="0 0 32 32" enable-background="new 0 0 32 32">
  <path fill="#3D4242" d="M1,1v30h30V1H1z M14,29H4v-2h10V29z M14,25H4v-2h10V25z M28,29H18v-2h10V29z M28,25H18v-2h10V25z M28,21H4
  	V11h24V21z M29,7H3V3h26V7z"/>
  </svg>
  
</svg>
