<?xml version="1.0" encoding="utf-8"?>
<svg version="1.1" xmlns="http://www.w3.org/2000/svg">
  <style type="text/css">
    @media screen {
      #small {
        display: initial;
      }
      #medium, #large {
        display: none;
      }
    }
    @media screen and (min-width: 24px) {
      #small {
        display: none;
      }
      #medium {
        display: initial;
      }
    }
    @media screen and (min-width: 32px) {
      #medium {
        display: none;
      }
      #large {
        display: initial;
      }
    }
  </style>
  <svg id="small" version="1.1" xmlns="http://www.w3.org/2000/svg" xmlns:xlink="http://www.w3.org/1999/xlink" x="0px" y="0px"
  	 viewBox="0 0 16 16" enable-background="new 0 0 16 16">
  <rect x="1" y="3" fill="#3D4242" width="14" height="2"/>
  <polygon fill="#3D4242" points="16,12 13.71,12 15.33,10.38 14.62,9.67 13,11.29 13,9 12,9 12,11.29 10.38,9.67 9.67,10.38 
  	11.29,12 9,12 9,13 11.29,13 9.67,14.62 10.38,15.33 12,13.71 12,16 13,16 13,13.71 14.62,15.33 15.33,14.62 13.71,13 16,13 "/>
  <rect x="1" y="11" fill="#3D4242" width="7" height="2"/>
  <polygon fill="#3D4242" points="9.32,8.61 10.38,7.55 11,8.17 11,8 14,8 14,8.17 14.62,7.55 15,7.93 15,7 1,7 1,9 8.93,9 "/>
  </svg>
  
  <svg id="medium" version="1.1" xmlns="http://www.w3.org/2000/svg" xmlns:xlink="http://www.w3.org/1999/xlink" x="0px" y="0px"
  	 viewBox="0 0 24 24" enable-background="new 0 0 24 24">
  <rect x="1" y="4" fill="#3D4242" width="22" height="3"/>
  <polygon fill="#3D4242" points="24,17 20.41,17 22.95,14.46 21.54,13.05 19,15.59 19,12 17,12 17,15.59 14.46,13.05 13.05,14.46 
  	15.59,17 12,17 12,19 15.59,19 13.05,21.54 14.46,22.95 17,20.41 17,24 19,24 19,20.41 21.54,22.95 22.95,21.54 20.41,19 24,19 "/>
  <rect x="1" y="16" fill="#3D4242" width="10" height="3"/>
  <polygon fill="#3D4242" points="13.4,11.99 14.46,10.93 15.53,11.99 16,12.46 16,11 20,11 20,12.46 20.47,11.99 21.54,10.93 
  	22.6,11.99 23,12.39 23,10 1,10 1,13 12.39,13 "/>
  </svg>
  
  <svg id="large" version="1.1" xmlns="http://www.w3.org/2000/svg" xmlns:xlink="http://www.w3.org/1999/xlink" x="0px" y="0px"
  	 viewBox="0 0 32 32" enable-background="new 0 0 32 32">
  <rect x="1" y="5" fill="#3D4242" width="30" height="4"/>
  <polygon fill="#3D4242" points="32,24 27.41,24 30.66,20.76 29.24,19.34 26,22.59 26,18 24,18 24,22.59 20.76,19.34 19.34,20.76 
  	22.59,24 18,24 18,26 22.59,26 19.34,29.24 20.76,30.66 24,27.41 24,32 26,32 26,27.41 29.24,30.66 30.66,29.24 27.41,26 32,26 "/>
  <rect x="1" y="23" fill="#3D4242" width="16" height="4"/>
  <polygon fill="#3D4242" points="20.76,17.22 21.54,18 23,18 23,17 27,17 27,18 28.46,18 29.24,17.22 30.02,18 31,18 31,14 1,14 
  	1,18 19.98,18 "/>
  </svg>
  
</svg>
