<?xml version="1.0" encoding="utf-8"?>
<svg version="1.1" xmlns="http://www.w3.org/2000/svg">
  <style type="text/css">
    @media screen {
      #small {
        display: initial;
      }
      #medium, #large {
        display: none;
      }
    }
    @media screen and (min-width: 24px) {
      #small {
        display: none;
      }
      #medium {
        display: initial;
      }
    }
    @media screen and (min-width: 32px) {
      #medium {
        display: none;
      }
      #large {
        display: initial;
      }
    }
  </style>
  <svg id="small" version="1.1" xmlns="http://www.w3.org/2000/svg" xmlns:xlink="http://www.w3.org/1999/xlink" x="0px" y="0px"
  	 viewBox="0 0 16 16" style="enable-background:new 0 0 16 16;">
  <g>
  	<rect x="1" y="3" width="14" height="1"/>
  	<rect x="1" y="5" width="14" height="1"/>
  	<rect x="1" y="7" width="7" height="1"/>
  	<rect x="1" y="11" width="7" height="1"/>
  	<rect x="1" y="9" width="7" height="1"/>
  </g>
  <g>
  	<rect x="9" y="7" width="7" height="1"/>
  	<path d="M9,16h7V9H9V16z M10,11v-1h1v1v1h3v-1v-1h1v1v1h-1v1h-3v-1h-1V11z"/>
  </g>
  </svg>
  
  <svg id="medium" version="1.1" xmlns="http://www.w3.org/2000/svg" xmlns:xlink="http://www.w3.org/1999/xlink" x="0px" y="0px"
  	 viewBox="0 0 24 24" style="enable-background:new 0 0 24 24;">
  <g>
  	<rect x="1" y="4" width="22" height="2"/>
  	<rect x="1" y="8" width="22" height="2"/>
  	<g>
  		<rect x="1" y="12" width="13" height="2"/>
  		<rect x="1" y="16" width="13" height="2"/>
  	</g>
  </g>
  <rect x="15" y="11" width="9" height="1"/>
  <path d="M15,13v11h9V13H15z M19.5,18.5c-1.93,0-3.5-2.29-3.5-4.5h1.5c0,1.26,0.9,3,2,3s2-1.74,2-3H23C23,16.21,21.43,18.5,19.5,18.5
  	z"/>
  </svg>
  
  <svg id="large" version="1.1" xmlns="http://www.w3.org/2000/svg" xmlns:xlink="http://www.w3.org/1999/xlink" x="0px" y="0px"
  	 viewBox="0 0 32 32" style="enable-background:new 0 0 32 32;">
  <g>
  	<rect x="1" y="5" width="30" height="2"/>
  	<rect x="1" y="10" width="30" height="2"/>
  	<g>
  		<rect x="1" y="15" width="17" height="2"/>
  		<rect x="1" y="20" width="17" height="2"/>
  		<rect x="1" y="25" width="17" height="2"/>
  	</g>
  </g>
  <rect x="19" y="15" width="13" height="2"/>
  <path d="M19,18v14h13V18H19z M25.5,26c-3.04,0-5.5-3.13-5.5-7h2c0,2.46,1.57,5,3.5,5s3.5-2.54,3.5-5h2C31,22.87,28.54,26,25.5,26z"
  	/>
  </svg>
  
</svg>
