<?xml version="1.0" encoding="utf-8"?>
<svg version="1.1" xmlns="http://www.w3.org/2000/svg">
  <style type="text/css">
    @media screen {
      #small {
        display: initial;
      }
      #medium, #large {
        display: none;
      }
    }
    @media screen and (min-width: 24px) {
      #small {
        display: none;
      }
      #medium {
        display: initial;
      }
    }
    @media screen and (min-width: 32px) {
      #medium {
        display: none;
      }
      #large {
        display: initial;
      }
    }
  </style>
  <svg id="small" version="1.1" xmlns="http://www.w3.org/2000/svg" xmlns:xlink="http://www.w3.org/1999/xlink" x="0px" y="0px"
  	 viewBox="0 0 16 16" enable-background="new 0 0 16 16">
  <rect x="4" y="1" fill="#3D4242" width="8" height="2"/>
  <polygon fill="#3D4242" points="16,12 13.71,12 15.33,10.38 14.62,9.67 13,11.29 13,9 12,9 12,11.29 10.38,9.67 9.67,10.38 
  	11.29,12 9,12 9,13 11.29,13 9.67,14.62 10.38,15.33 12,13.71 12,16 13,16 13,13.71 14.62,15.33 15.33,14.62 13.71,13 16,13 "/>
  <g>
  	<polygon fill="#3D4242" points="10.38,9.67 11,10.29 11,10.29 10.38,9.67 	"/>
  	<polygon fill="#3D4242" points="10.71,15 10.71,15 11,14.71 11,14.71 	"/>
  	<path fill="#3D4242" d="M7.55,14.62L8.17,14H8v-3h0.17l-0.62-0.62l1.06-1.06l0.6-0.6C8.87,8.89,8.48,9,8,9C5,9,5,5,5,5s0.5,0,1.5,0
  		C6.5,8,8,7.5,8,7.5S9.5,8,9.5,5c1,0,1.5,0,1.5,0s-0.01,1.42-0.64,2.57l0.02-0.02L11,8.17V8h1V4H4v11h3.93L7.55,14.62z"/>
  </g>
  </svg>
  
  <svg id="medium" version="1.1" xmlns="http://www.w3.org/2000/svg" xmlns:xlink="http://www.w3.org/1999/xlink" x="0px" y="0px"
  	 viewBox="0 0 24 24" enable-background="new 0 0 24 24">
  <rect x="5" y="1" fill="#3D4242" width="14" height="3"/>
  <polygon fill="#3D4242" points="24,17 20.41,17 22.95,14.46 21.54,13.05 19,15.59 19,12 17,12 17,15.59 14.46,13.05 13.05,14.46 
  	15.59,17 12,17 12,19 15.59,19 13.05,21.54 14.46,22.95 17,20.41 17,24 19,24 19,20.41 21.54,22.95 22.95,21.54 20.41,19 24,19 "/>
  <g>
  	<path fill="#3D4242" d="M11.99,22.6l-1.06-1.06l1.06-1.06L12.46,20H11v-4h1.46l-0.47-0.47l-1.06-1.06l0.52-0.52
  		C10.15,13.74,7,12.77,7,8h2c0,0,0,4,3,4s3-4,3-4h2c0,1.24-0.22,2.22-0.56,3H19V6H5v17h7.39L11.99,22.6z"/>
  </g>
  </svg>
  
  <svg id="large" version="1.1" xmlns="http://www.w3.org/2000/svg" xmlns:xlink="http://www.w3.org/1999/xlink" x="0px" y="0px"
  	 viewBox="0 0 32 32" enable-background="new 0 0 32 32">
  <rect x="6" y="1" fill="#3D4242" width="20" height="3"/>
  <polygon fill="#3D4242" points="32,24 27.41,24 30.66,20.76 29.24,19.34 26,22.59 26,18 24,18 24,22.59 20.76,19.34 19.34,20.76 
  	22.59,24 18,24 18,26 22.59,26 19.34,29.24 20.76,30.66 24,27.41 24,32 26,32 26,27.41 29.24,30.66 30.66,29.24 27.41,26 32,26 "/>
  <g>
  	<polygon fill="#3D4242" points="23,21.59 23,21.59 20.76,19.34 	"/>
  	<polygon fill="#3D4242" points="23,28.41 20.76,30.66 23,28.41 	"/>
  	<path fill="#3D4242" d="M18.28,30.3l-1.06-1.06l1.06-1.06L19.46,27H17v-4h2.46l-1.18-1.18l-1.06-1.06l1.06-1.06l1.41-1.41
  		l1.03-1.03C18.52,19.01,16,19,16,19S8,19.08,8,9h3c0,0-0.01,7,5,7c4.96,0,5-7,5-7h3c0,4.38-1.52,6.84-3.24,8.22l1.06,1.06L23,19.46
  		V17h3V7H6v24h12.98L18.28,30.3z"/>
  </g>
  </svg>
  
</svg>
