<?xml version="1.0" encoding="utf-8"?>
<svg version="1.1" xmlns="http://www.w3.org/2000/svg">
  <style type="text/css">
    @media screen {
      #small {
        display: initial;
      }
      #medium, #large {
        display: none;
      }
    }
    @media screen and (min-width: 24px) {
      #small {
        display: none;
      }
      #medium {
        display: initial;
      }
    }
    @media screen and (min-width: 32px) {
      #medium {
        display: none;
      }
      #large {
        display: initial;
      }
    }
  </style>
  <svg id="small" version="1.1" xmlns="http://www.w3.org/2000/svg" xmlns:xlink="http://www.w3.org/1999/xlink" x="0px" y="0px"
  	 viewBox="0 0 16 16" enable-background="new 0 0 16 16">
  <g>
  	<rect x="3" y="1" fill="#3D4242" width="10" height="1"/>
  	<polygon fill="#3D4242" points="3,11 7,11 7,15 9,15 13,15 13,11 13,3 3,3 	"/>
  	<polygon fill="#3D4242" points="6,15 6,12 3,12 	"/>
  </g>
  </svg>
  
  <svg id="medium" version="1.1" xmlns="http://www.w3.org/2000/svg" xmlns:xlink="http://www.w3.org/1999/xlink" x="0px" y="0px"
  	 viewBox="0 0 24 24" enable-background="new 0 0 24 24">
  <g>
  	<rect x="4" y="1" fill="#3D4242" width="16" height="2"/>
  	<polygon fill="#3D4242" points="4,17 10,17 10,23 14,23 20,23 20,17 20,4 4,4 	"/>
  	<polygon fill="#3D4242" points="9,23 9,18 4,18 	"/>
  </g>
  </svg>
  
  <svg id="large" version="1.1" xmlns="http://www.w3.org/2000/svg" xmlns:xlink="http://www.w3.org/1999/xlink" x="0px" y="0px"
  	 viewBox="0 0 32 32" enable-background="new 0 0 32 32">
  <g>
  	<rect x="5" y="1" fill="#3D4242" width="22" height="2"/>
  	<polygon fill="#3D4242" points="5,22 14,22 14,24 14,31 18,31 27,31 27,22 27,5 5,5 	"/>
  	<polygon fill="#3D4242" points="5,24 12,31 12,24 	"/>
  </g>
  </svg>
  
</svg>
