<?xml version="1.0" standalone="no"?>
<!DOCTYPE svg PUBLIC "-//W3C//DTD SVG 20010904//EN"
 "http://www.w3.org/TR/2001/REC-SVG-20010904/DTD/svg10.dtd">
<svg version="1.0" xmlns="http://www.w3.org/2000/svg"
 width="700.000000pt" height="700.000000pt" viewBox="0 0 700.000000 700.000000"
 preserveAspectRatio="xMidYMid meet">
<metadata>
Created by potrace 1.11, written by Peter Selinger 2001-2013
</metadata>
<g transform="translate(0.000000,700.000000) scale(0.100000,-0.100000)"
fill="#000000" stroke="none">
<path d="M3285 6994 c-203 -20 -276 -28 -375 -45 -610 -105 -1195 -376 -1665
-772 -95 -81 -310 -294 -394 -392 -468 -542 -742 -1176 -833 -1925 -17 -137
-17 -583 0 -720 69 -569 227 -1028 514 -1491 145 -236 311 -440 525 -649 204
-200 371 -332 592 -468 463 -287 922 -445 1491 -514 137 -17 583 -17 720 0
569 69 1028 227 1491 514 221 136 388 268 592 468 593 578 935 1283 1039 2140
20 160 16 593 -6 765 -68 534 -237 1015 -509 1449 -86 138 -283 405 -299 406
-5 0 -8 -155 -8 -345 l0 -345 -115 0 -115 0 0 330 0 330 -125 0 -125 0 0 -330
0 -330 -115 0 -115 0 0 330 0 330 -130 0 -130 0 0 -330 0 -330 -115 0 -115 0
0 445 0 445 513 0 512 1 -91 88 c-520 502 -1222 829 -1984 926 -117 15 -536
28 -625 19z m1685 -2569 l0 -345 -1152 0 -1153 0 -97 -97 -98 -98 0 -525 0
-525 93 -93 92 -92 1155 -2 1155 -3 3 -347 2 -348 -1277 0 -1278 0 -342 342
-343 343 0 725 0 725 342 342 343 343 1277 0 1278 0 0 -345z"/>
</g>
</svg>
