<?xml version="1.0" encoding="utf-8"?>
<svg version="1.1" xmlns="http://www.w3.org/2000/svg">
  <style type="text/css">
    @media screen {
      #small {
        display: initial;
      }
      #medium, #large {
        display: none;
      }
    }
    @media screen and (min-width: 24px) {
      #small {
        display: none;
      }
      #medium {
        display: initial;
      }
    }
    @media screen and (min-width: 32px) {
      #medium {
        display: none;
      }
      #large {
        display: initial;
      }
    }
  </style>
  <svg id="small" version="1.1" xmlns="http://www.w3.org/2000/svg" xmlns:xlink="http://www.w3.org/1999/xlink" x="0px" y="0px"
  	 viewBox="0 0 16 16" enable-background="new 0 0 16 16">
  <path fill="#3D4242" d="M8,1C4.13,1,1,4.13,1,8s3.13,7,7,7s7-3.13,7-7S11.87,1,8,1z M8,3l5,2.5L8,8L3,5.5L8,3z M13,10.5L8,13l-5-2.5
  	v-4L8,9l5-2.5V10.5z"/>
  </svg>
  
  <svg id="medium" version="1.1" xmlns="http://www.w3.org/2000/svg" xmlns:xlink="http://www.w3.org/1999/xlink" x="0px" y="0px"
  	 viewBox="0 0 24 24" enable-background="new 0 0 24 24">
  <path fill="#3D4242" d="M12,1C5.92,1,1,5.92,1,12s4.92,11,11,11s11-4.92,11-11S18.08,1,12,1z M12,4l8,4l-8,4L4,8L12,4z M20,16l-8,4
  	l-8-3.96V10l8,4l8-4V16z"/>
  </svg>
  
  <svg id="large" version="1.1" xmlns="http://www.w3.org/2000/svg" xmlns:xlink="http://www.w3.org/1999/xlink" x="0px" y="0px"
  	 viewBox="0 0 32 32" enable-background="new 0 0 32 32">
  <path fill="#3D4242" d="M16,1C7.72,1,1,7.72,1,16s6.72,15,15,15s15-6.72,15-15S24.28,1,16,1z M16,4l11,6l-11,6L5,10L16,4z M27,21
  	l-11,6L5,21v-8l11,6l11-6V21z"/>
  </svg>
  
</svg>
